<svg width="173" height="172" viewBox="0 0 173 172" fill="none" xmlns="http://www.w3.org/2000/svg">
<path d="M25.9498 34.4C25.9498 29.6432 29.8153 25.8 34.5998 25.8H129.75C148.861 25.8 164.35 41.1994 164.35 60.2001C164.35 79.2007 148.861 94.6001 129.75 94.6001C129.75 108.844 118.126 120.4 103.8 120.4H51.8998C37.5732 120.4 25.9498 108.844 25.9498 94.6001V34.4ZM147.05 60.2001C147.05 50.7132 139.292 43 129.75 43V77.4001C139.292 77.4001 147.05 69.6869 147.05 60.2001ZM25.9498 137.6H129.75C134.534 137.6 138.4 141.443 138.4 146.2C138.4 150.957 134.534 154.8 129.75 154.8H25.9498C21.1653 154.8 17.2998 150.957 17.2998 146.2C17.2998 141.443 21.1653 137.6 25.9498 137.6Z" fill="#6C4B3B"/>
</svg>
