<svg width="162" height="162" viewBox="0 0 162 162" fill="none" xmlns="http://www.w3.org/2000/svg">
<path d="M31.7421 32.3999C23.1611 32.3999 16.2002 39.3608 16.2002 47.9418C16.2002 48.1696 16.2002 48.3721 16.2255 48.5999H16.2002V113.4C16.2002 122.335 23.4649 129.6 32.4002 129.6H129.6C138.535 129.6 145.8 122.335 145.8 113.4V48.5999H145.775C145.775 48.3721 145.8 48.1696 145.8 47.9418C145.8 39.3608 138.839 32.3999 130.258 32.3999H31.7421ZM133.65 64.8758V113.4C133.65 115.627 131.828 117.45 129.6 117.45H32.4002C30.1727 117.45 28.3502 115.627 28.3502 113.4V64.8758L67.5339 94.5927C75.4821 100.642 86.493 100.642 94.4664 94.5927L133.65 64.8758ZM28.3502 47.9418C28.3502 46.0687 29.8689 44.5499 31.7421 44.5499H130.258C132.131 44.5499 133.65 46.0687 133.65 47.9418C133.65 49.0049 133.144 50.0174 132.309 50.6502L87.1258 84.9233C83.5061 87.6571 78.4943 87.6571 74.8746 84.9233L29.6918 50.6502C28.8564 50.0174 28.3502 49.0049 28.3502 47.9418Z" fill="#BF8C36"/>
</svg>
