<svg width="162" height="162" viewBox="0 0 162 162" fill="none" xmlns="http://www.w3.org/2000/svg">
<path d="M81.0763 51.8908C65.0029 51.8402 51.9416 64.8508 51.891 80.9242C51.8404 96.9977 64.851 110.059 80.9245 110.11C96.9979 110.16 110.059 97.1495 110.11 81.0761C110.16 65.0027 97.1498 51.9414 81.0763 51.8908ZM80.9245 62.117C91.3532 62.0664 99.8329 70.4955 99.8835 80.9242C99.9341 91.353 91.5051 99.8326 81.0763 99.8833C70.6476 99.9339 62.1679 91.5048 62.1173 81.0761C62.0666 70.6473 70.4957 62.1677 80.9245 62.117ZM104.566 50.7011C104.566 46.9548 107.604 43.9173 111.35 43.9173C115.096 43.9173 118.134 46.9548 118.134 50.7011C118.134 54.4473 115.096 57.4848 111.35 57.4848C107.604 57.4848 104.566 54.4473 104.566 50.7011ZM137.397 57.5861C136.966 48.4989 134.891 40.4495 128.234 33.8177C121.602 27.1858 113.552 25.1102 104.465 24.6545C95.0994 24.123 67.0279 24.123 57.6623 24.6545C48.6004 25.0848 40.551 27.1605 33.8938 33.7923C27.2366 40.4242 25.1863 48.4736 24.7307 57.5608C24.1991 66.9264 24.1991 94.998 24.7307 104.364C25.161 113.451 27.2366 121.5 33.8938 128.132C40.551 134.764 48.5751 136.84 57.6623 137.295C67.0279 137.827 95.0994 137.827 104.465 137.295C113.552 136.865 121.602 134.789 128.234 128.132C134.865 121.5 136.941 113.451 137.397 104.364C137.928 94.998 137.928 66.9517 137.397 57.5861ZM125.297 114.413C123.323 119.374 119.501 123.196 114.514 125.196C107.047 128.157 89.3282 127.474 81.0763 127.474C72.8244 127.474 55.0804 128.132 47.6385 125.196C42.6773 123.221 38.8551 119.399 36.8554 114.413C33.8938 106.945 34.5773 89.2267 34.5773 80.9748C34.5773 72.723 33.9191 54.9789 36.8554 47.537C38.8298 42.5758 42.652 38.7536 47.6385 36.7539C55.1057 33.7923 72.8244 34.4758 81.0763 34.4758C89.3282 34.4758 107.072 33.8177 114.514 36.7539C119.475 38.7283 123.298 42.5505 125.297 47.537C128.259 55.0042 127.575 72.723 127.575 80.9748C127.575 89.2267 128.259 106.971 125.297 114.413Z" fill="#BF8C36"/>
</svg>
