<svg width="164" height="173" viewBox="0 0 164 173" fill="none" xmlns="http://www.w3.org/2000/svg">
<path d="M123 155.7H49.1996C35.6184 155.7 24.5996 144.077 24.5996 129.75V43.25C24.5996 28.9235 35.6184 17.3 49.1996 17.3H127.1C133.89 17.3 139.4 23.1118 139.4 30.275V108.125C139.4 113.775 135.966 118.586 131.2 120.37V138.4C135.735 138.4 139.4 142.266 139.4 147.05C139.4 151.835 135.735 155.7 131.2 155.7H123ZM49.1996 121.1C44.664 121.1 40.9996 124.966 40.9996 129.75C40.9996 134.535 44.664 138.4 49.1996 138.4H114.8V121.1H49.1996ZM57.3996 58.3875C57.3996 61.9827 60.1415 64.875 63.5496 64.875H108.65C112.058 64.875 114.8 61.9827 114.8 58.3875C114.8 54.7924 112.058 51.9 108.65 51.9H63.5496C60.1415 51.9 57.3996 54.7924 57.3996 58.3875ZM63.5496 77.85C60.1415 77.85 57.3996 80.7424 57.3996 84.3375C57.3996 87.9327 60.1415 90.825 63.5496 90.825H108.65C112.058 90.825 114.8 87.9327 114.8 84.3375C114.8 80.7424 112.058 77.85 108.65 77.85H63.5496Z" fill="#6C4B3B"/>
</svg>
