<svg width="232" height="159" viewBox="0 0 232 159" fill="none" xmlns="http://www.w3.org/2000/svg">
<path d="M60.0154 51.1047L62.8941 48.2168L61.5161 58.0285L58.0835 58.052L58.3212 48.2481L86.149 48.0576L86.4633 57.8577L83.0467 57.8811L81.5721 48.0889L84.463 50.9374L60.0194 51.1046L60.0154 51.1047ZM73.1462 80.5277L80.2935 81.2875L80.3059 83.8153L64.5166 83.9234L64.5041 81.3956L71.5709 80.5384L73.1462 80.5277ZM69.1245 64.8618C69.0971 59.3157 69.0695 53.7165 68.8931 48.1713L75.5529 48.1257C75.4306 53.5624 75.4583 59.1616 75.4862 64.8183L75.4976 67.134C75.525 72.6979 75.5526 78.2971 75.7291 83.8422L69.0692 83.8878C69.1915 78.4511 69.1639 72.8519 69.136 67.1952L69.1245 64.8574L69.1245 64.8618Z" fill="white"/>
<path d="M90.7505 72.4657L90.7364 69.6195C90.7218 66.6585 90.6667 65.2844 90.5554 63.1329L87.096 62.6704L87.0862 60.6684L95.2765 57.2048L96.069 57.7563L96.6176 64.4217L96.657 72.4208C96.6735 75.7575 96.7492 81.3035 96.8618 83.7247L90.6571 83.7671C90.7419 81.3446 90.7669 75.7979 90.7504 72.4612L90.7505 72.4657ZM87.5802 81.5961L92.6152 80.4833L95.7216 80.462L100.767 81.5058L100.778 83.7067L87.591 83.797L87.5802 81.5961ZM93.8133 65.2541L97.0607 65.2318L96.1265 66.1663C97.3066 60.3421 100.502 57.1647 103.415 57.1447C105.2 57.1325 106.805 58.1513 107.31 60.035C107.27 62.7047 106.121 64.2108 104.159 64.2242C102.85 64.2332 101.807 63.5995 100.773 62.3425L99.3874 60.6991L101.576 60.8167C99.1903 62.3976 97.4352 65.1807 96.579 68.8592L93.8302 68.6791L93.8133 65.2496L93.8133 65.2541Z" fill="white"/>
<path d="M112.33 83.651C112.415 81.2273 112.44 75.6779 112.423 72.3397L112.411 69.7884C112.396 66.826 112.339 65.155 112.228 63.0024L108.701 62.5402L108.691 60.5372L117.555 57.0675L118.348 57.6192L118.236 65.1678L118.271 72.2997C118.287 75.6379 118.363 81.1866 118.476 83.6089L112.33 83.651ZM121.365 81.3872L121.376 83.5891L109.192 83.6724L109.181 81.4705L114.149 80.3577L116.52 80.3414L121.365 81.3872ZM111.449 48.2393C111.438 45.9534 113.072 44.3814 115.141 44.3672C117.21 44.3531 118.859 45.9071 118.87 48.1886C118.881 50.4701 117.248 52.0465 115.179 52.0607C113.11 52.0748 111.46 50.4899 111.449 48.2393Z" fill="white"/>
<path d="M142.642 88.4014C142.632 86.4123 141.467 84.7494 138.352 84.7707L132.884 84.8081C131.381 84.8184 130.014 84.6952 129.005 84.3352L129.004 84.0744C126.497 83.3622 125.337 81.8098 125.327 79.666C125.315 77.3057 126.775 75.0325 129.956 72.111L131.149 72.9515C130.06 74.3469 129.573 75.3758 129.58 76.8521C129.587 78.2091 130.24 79.0754 132.44 79.0604L138.542 79.0186C144.929 78.9749 147.502 81.8261 147.524 86.3435C147.549 91.409 143.058 96.0324 134.35 96.092C126.742 96.144 123.992 93.3118 123.974 89.7314C123.961 87.0926 125.599 85.0304 129.918 83.1399L130.399 83.5388C128.913 85.4099 128.331 86.656 128.341 88.5567C128.357 91.9337 130.653 93.2971 134.804 93.2687C139.97 93.2334 142.655 91.0932 142.642 88.4014ZM134.48 56.9803C140.496 56.9391 144.01 60.1773 144.037 65.6892C144.064 71.2011 140.522 74.4256 134.534 74.4666C128.545 74.5076 124.975 71.2478 124.948 65.8198C124.921 60.3919 128.463 57.0215 134.48 56.9803ZM130.38 65.7738C130.399 69.6459 131.782 72.1294 134.429 72.1113C137.077 72.0932 138.656 69.4833 138.636 65.5803C138.617 61.6773 137.147 59.3137 134.519 59.3316C131.892 59.3496 130.357 61.9018 130.376 65.7738L130.38 65.7738ZM146.971 56.8374L147.728 57.3715L147.746 61.1242L140.622 61.1729L140.614 59.5596L146.971 56.8374Z" fill="white"/>
<path d="M149.734 70.5497C149.692 61.9505 155.158 56.8665 161.507 56.823C167.857 56.7796 173.372 61.7265 173.415 70.3876C173.458 79.0487 168.233 84.0691 161.642 84.1143C155.051 84.1594 149.777 79.1489 149.734 70.5497ZM167.014 70.4889C166.977 63.0562 165.013 59.4195 161.52 59.4434C158.027 59.4673 156.099 63.1351 156.136 70.5633C156.173 77.9915 158.072 81.5182 161.629 81.4938C165.186 81.4695 167.05 77.9392 167.014 70.4889Z" fill="white"/>
<path d="M36.5878 114.934L39.0093 112.505L37.8495 120.759L34.9608 120.779L35.1577 112.531L58.5697 112.37L58.8362 120.615L55.9635 120.635L54.7221 112.396L57.1554 114.793L36.5878 114.934ZM47.6371 139.691L53.6517 140.33L53.6622 142.46L40.3788 142.552L40.3683 140.422L46.3116 139.7L47.6371 139.691ZM44.2519 126.509C44.2288 121.842 44.2055 117.131 44.0575 112.465L49.6577 112.427C49.5555 117.002 49.5788 121.713 49.6024 126.472L49.612 128.421C49.6352 133.106 49.6585 137.816 49.8065 142.482L44.2063 142.521C44.3086 137.946 44.2852 133.235 44.2617 128.476L44.2519 126.509Z" fill="white"/>
<path d="M62.4506 132.907L62.4388 130.512C62.4265 128.019 62.3805 126.866 62.2869 125.055L59.376 124.668L59.3677 122.984L66.2593 120.069L66.9264 120.533L67.3892 126.143L67.4224 132.873C67.4363 135.684 67.4996 140.346 67.5942 142.387L62.3766 142.423C62.4512 140.385 62.4685 135.718 62.4546 132.907L62.4506 132.907ZM59.7849 140.589L64.019 139.654L66.6338 139.636L70.8768 140.513L70.886 142.365L59.79 142.441L59.7809 140.589L59.7849 140.589ZM65.0275 126.839L67.7592 126.821L66.9734 127.608C67.9686 122.705 70.655 120.034 73.1087 120.018C74.6115 120.007 75.9574 120.864 76.3883 122.448C76.3551 124.693 75.3903 125.96 73.7384 125.971C72.6384 125.978 71.7575 125.445 70.89 124.386L69.7228 123.002L71.5646 123.1C69.5566 124.431 68.0813 126.77 67.3593 129.868L65.0458 129.716L65.0315 126.83L65.0275 126.839Z" fill="white"/>
<path d="M84.8489 130.04C86.5661 129.414 89.3297 128.564 91.3297 128.091L91.3384 129.854C89.4352 130.34 87.1104 131.12 85.8885 131.703C83.1187 132.942 82.3048 134.569 82.3134 136.297C82.3249 138.63 83.5948 139.625 85.2345 139.613C86.3464 139.606 87.0773 139.128 89.0197 137.577L90.2635 136.539L90.771 137.335L89.3089 139.042C87.0854 141.576 85.7504 142.92 82.9867 142.939C79.8806 142.96 77.5019 140.992 77.4835 137.249C77.4692 134.364 78.8928 132.197 84.8408 130.04L84.8489 130.04ZM88.8179 138.325L88.7644 127.481C88.7435 123.256 87.8073 122.127 85.1282 122.146C84.1492 122.152 83.0017 122.297 81.3408 122.905L83.5931 121.303L82.9296 124.821C82.7067 127.001 81.7284 127.98 80.3708 127.989C79.0131 127.998 78.2441 127.275 78.0321 125.959C78.5098 122.345 81.693 119.982 86.745 119.947C91.5311 119.914 93.6213 122.193 93.6503 128.084L93.6991 137.969C93.7063 139.427 94.1643 139.999 94.9338 139.993C95.4978 139.99 95.891 139.664 96.3591 138.985L97.3264 139.875C96.3457 141.986 95.0522 142.768 93.0862 142.781C90.5401 142.799 89.0169 141.094 88.8219 138.321L88.8179 138.325Z" fill="white"/>
<path d="M109.25 139.559C111.297 139.545 112.705 138.223 114.288 135.772L114.724 136.742C112.931 140.732 110.712 142.772 107.263 142.795C102.407 142.828 98.9045 138.543 98.87 131.555C98.8355 124.567 102.894 119.854 107.762 119.82C110.736 119.8 112.618 121.396 114.663 125.166L114.253 126.198C112.239 123.874 110.824 122.977 109.196 122.989C106.4 123.008 104.124 125.658 104.152 131.435C104.181 137.212 106.308 139.584 109.246 139.564L109.25 139.559ZM120.568 140.216L120.578 142.068L113.367 142.603L112.87 138.284L112.8 124.109L112.983 123.568L112.932 113.15L109.71 112.717L109.701 110.967L117.238 108.877L117.865 109.284L117.731 115.668L117.862 142.086L116.095 139.287L120.568 140.216Z" fill="white"/>
<path d="M125.307 142.06C125.382 140.021 125.399 135.352 125.385 132.54L125.374 130.391C125.362 127.897 125.315 126.492 125.221 124.679L122.255 124.293L122.247 122.608L129.705 119.688L130.373 120.152L130.28 126.506L130.309 132.506C130.323 135.318 130.386 139.983 130.481 142.025L125.307 142.06ZM132.908 140.156L132.917 142.008L122.665 142.078L122.656 140.226L126.834 139.291L128.83 139.277L132.908 140.156ZM124.567 112.263C124.558 110.34 125.93 109.017 127.673 109.005C129.415 108.993 130.801 110.302 130.81 112.221C130.82 114.14 129.447 115.467 127.704 115.479C125.962 115.49 124.576 114.156 124.567 112.263Z" fill="white"/>
<path d="M140.608 130.557C140.635 136.017 143.177 138.992 146.848 138.967C149.033 138.952 150.816 137.804 152.04 135.912L153.266 136.881C151.926 140.616 149.127 142.554 145.226 142.581C139.579 142.619 135.448 138.497 135.412 131.216C135.376 123.936 140.127 119.642 145.681 119.604C149.707 119.576 152.775 122.296 153.211 125.781C152.892 127.167 152.153 127.813 150.892 127.821C149.393 127.832 148.441 126.83 148.188 124.653L147.473 121.05L149.944 122.811C148.599 122.086 147.356 121.776 146.127 121.785C143.152 121.805 140.591 124.585 140.62 130.549L140.608 130.557ZM144.263 141.783L146.084 141.77L145.703 145.332L144.642 144.269C147.839 144.499 149.756 145.883 149.767 148.173C149.778 150.462 148.065 152.008 144.7 152.031C143.451 152.04 142.539 151.821 141.804 151.543L142.162 149.816C142.884 149.984 143.509 150.059 144.251 150.054C145.803 150.043 146.52 149.291 146.515 148.137C146.508 146.767 145.586 146.137 143.711 145.915L144.259 141.778L144.263 141.783Z" fill="white"/>
<path d="M163.385 129.583C165.103 128.957 167.867 128.107 169.868 127.634L169.877 129.398C167.973 129.884 165.647 130.664 164.425 131.247C161.655 132.486 160.84 134.114 160.849 135.842C160.861 138.176 162.131 139.171 163.771 139.16C164.883 139.152 165.614 138.674 167.557 137.123L168.801 136.084L169.309 136.881L167.846 138.588C165.622 141.123 164.287 142.467 161.523 142.486C158.416 142.507 156.036 140.539 156.018 136.795C156.004 133.908 157.427 131.742 163.377 129.584L163.385 129.583ZM167.359 137.871L167.306 127.024C167.285 122.798 166.349 121.668 163.669 121.687C162.689 121.693 161.542 121.838 159.88 122.446L162.133 120.844L161.469 124.363C161.246 126.544 160.268 127.523 158.91 127.532C157.552 127.541 156.783 126.817 156.571 125.502C157.048 121.887 160.233 119.522 165.286 119.488C170.073 119.455 172.164 121.735 172.193 127.627L172.242 137.515C172.249 138.974 172.707 139.545 173.477 139.54C174.041 139.536 174.435 139.211 174.903 138.531L175.87 139.422C174.889 141.533 173.595 142.315 171.629 142.328C169.082 142.346 167.558 140.641 167.363 137.867L167.359 137.871ZM161.979 109.193C163.281 109.184 164.158 109.837 165.016 110.547C165.895 111.328 166.73 112.357 167.798 112.349C169.007 112.341 169.807 111.129 170.345 109.162L171.742 109.745C171.281 113.488 169.87 115.823 167.557 115.839C166.284 115.847 165.293 115.195 164.459 114.485C163.581 113.704 162.762 112.675 161.678 112.683C160.469 112.691 159.685 113.903 159.147 115.856L157.749 115.274C158.186 111.513 159.65 109.209 161.983 109.193L161.979 109.193Z" fill="white"/>
<path d="M177.418 130.919C177.382 123.681 181.982 119.407 187.324 119.371C192.666 119.334 197.308 123.496 197.344 130.783C197.38 138.07 192.985 142.298 187.438 142.336C181.89 142.374 177.454 138.158 177.418 130.919ZM191.958 130.868C191.927 124.616 190.276 121.551 187.335 121.571C184.394 121.592 182.774 124.678 182.805 130.931C182.835 137.184 184.433 140.147 187.427 140.126C190.42 140.106 191.989 137.134 191.958 130.868Z" fill="white"/>
<path d="M212.941 81.3234L213.622 83.7308M211.93 70.8817L210.976 77.7064C208.553 75.2328 209.45 70.3331 211.633 67.8038M222.34 18.2773C226.334 23.4716 224.726 30.1219 220.709 34.7311C220.516 34.9538 219.767 36.0605 219.483 35.7367C217.269 29.6725 217.888 22.9969 222.34 18.2773ZM214.983 10.5264L217.521 13.3343C217.74 13.5748 218.562 15.919 218.697 16.4297C219.645 19.9644 218.492 24.4032 216.277 27.1358C211.871 22.4269 211.147 15.9592 214.983 10.5264ZM220.73 46.463C217.716 40.0891 222.357 33.3726 226.5 29.1063C227.909 31.8463 228.197 34.9374 227.134 37.8923C226.914 38.5081 225.756 41.0181 225.439 41.3612L220.726 46.4586L220.73 46.463ZM228.357 40.8945C231.932 47.2318 226.166 53.9863 221.879 57.8611C218.321 51.5634 223.277 44.1639 228.357 40.8945ZM209.597 22.8649C213.959 24.745 218.364 30.8531 217.714 36.1211C217.671 36.4658 217.826 36.7423 217.443 36.9845C213.107 34.3891 207.212 28.8214 209.597 22.8649ZM230.219 51.9102C230.885 52.0359 230.87 55.0463 230.813 55.6736C230.348 60.7013 226.128 65.2023 222.514 67.905C218.759 61.8874 225.316 54.3701 230.219 51.9146L230.219 51.9102ZM209.528 32.5232C213.121 34.8039 218.557 38.9065 217.963 43.9929C213.385 44.1498 206.03 37.7936 209.528 32.5232ZM217.352 47.1241C218.541 48.6171 219.985 51.2684 219.902 53.3129C219.84 54.8539 219.596 55.2978 218.283 54.8477C213.972 53.3599 206.924 47.9011 209.6 42.1182C212.256 42.4399 215.616 44.9392 217.352 47.1241ZM222.263 74.8505C222.437 72.3858 223.57 69.5759 224.949 67.6198C225.635 66.6462 229.962 61.8661 230.752 62.6261C231.931 67.3855 229.351 73.8692 225.546 76.3973C223.277 77.9034 222.028 78.1854 222.267 74.8461L222.263 74.8505ZM218.867 58.1389C220.199 60.0454 220.96 62.5403 220.273 64.9131C219.792 65.6242 217.503 64.2483 216.985 63.9181C214.104 62.1069 210.659 58.549 210.049 54.8211C209.568 51.8908 210.612 51.7345 212.831 52.7095C215.059 53.6887 217.417 56.0615 218.871 58.1389L218.867 58.1389ZM223.785 87.547C220.837 82.4039 226.749 76.5572 230.416 73.9202C232.897 79.1783 228.725 86.1726 223.785 87.547ZM196.789 37.8788C200.182 40.7397 200.015 44.661 197.772 48.3076C195.593 45.5225 194.843 41.0854 196.789 37.8788ZM201.688 43.6905C203.884 46.5769 203.978 48.6549 203.026 52.0942C202.843 52.7537 201.621 56.3678 201.242 56.4291C198.832 52.5032 197.641 46.9627 201.688 43.6905ZM194.456 43.848C191.547 42.0017 188.235 37.5377 190.021 33.7059C193.589 35.007 196.015 39.9126 194.456 43.848ZM205.348 50.0755C208.402 53.6594 207.83 59.2399 204.727 62.6216C201.903 58.9338 202.532 53.6043 205.348 50.0755ZM211.79 62.2805C215.132 63.5795 218.327 66.288 220.049 69.7309C220.79 71.2108 221.536 73.675 220.445 75.1471C219.613 75.8971 216.586 73.6945 215.861 73.0133C213.462 70.7513 209.78 65.7879 211.79 62.2849L211.79 62.2805ZM230.17 83.7655C232.606 88.9977 229.122 96.4484 224.144 98.088C221.151 92.8483 226.566 86.861 230.17 83.7655ZM195.141 46.2686C196.939 48.828 197.729 52.0907 193.613 50.2302C191.701 49.3668 189.889 47.3814 189.109 45.2795C188.709 44.2066 188.219 42.9404 189.61 42.7497C191.456 42.5014 194.081 44.7566 195.141 46.2686ZM201.389 58.555C201.172 59.7446 197.427 58.5821 196.736 58.2404C193.966 56.8738 191 53.9114 191.327 50.3108C195.554 51.1108 199.815 54.0469 201.393 58.555L201.389 58.555ZM219.958 78.0299C221.472 80.0625 222.833 83.156 221.247 85.5866C217.766 85.6087 210.521 76.8194 212.741 73.5438C213.157 72.8113 215.07 73.8644 215.672 74.229C217.189 75.1449 218.866 76.5668 219.954 78.0299L219.958 78.0299ZM204.017 64.2619C204.257 64.6347 205.155 67.1282 204.959 67.3509C200.983 66.7999 195.583 64.5728 195.165 59.5806C198.521 58.7166 202.152 61.3501 204.017 64.2619ZM207.313 72.191C207.902 73.1075 208.142 74.5616 208.252 75.6684C204.439 74.5684 198.392 72.0522 198.792 66.7559C201.985 67.1516 205.44 69.2792 207.313 72.191ZM214.641 83.3232C218.746 85.6914 224.818 90.1362 222.053 95.9642C218.701 95.1993 215.9 91.4452 214.791 88.0534C214.566 87.3627 213.633 83.5189 214.641 83.3232ZM210.428 79.5393C211.114 80.5563 211.402 81.754 211.376 83.0122C207.837 82.055 203.349 79.7084 202.966 75.2587C205.279 74.86 209.1 77.5754 210.428 79.5393ZM206.879 82.5238C209.713 83.8545 214.202 85.3404 213.761 89.5425C210.966 90.564 207.988 87.5753 206.943 84.9332C206.812 84.6034 206.371 82.5422 206.879 82.5238Z" stroke="#BF8C36" stroke-miterlimit="10"/>
<path d="M210.676 56.2079C207.298 59.9979 206.356 67.1301 208.037 70.5684" stroke="#BF8C36" stroke-miterlimit="10"/>
<path d="M203.665 157.787C213.243 144.505 218.219 128.034 219.984 111.399C222.996 83.4737 219.862 55.3652 216.693 27.6239C222.32 58.922 226.675 97.221 218.459 128.248C215.558 139.096 210.61 149.369 203.665 157.787Z" fill="#BF8C36"/>
<path d="M220.169 108.73C215 88.518 207.047 69.226 197.136 51.3022C195.756 48.7023 194.2 46.2275 192.8 43.6321C194.521 45.9774 196.287 48.3046 197.872 50.7659C198.339 51.4955 200.416 54.7658 200.823 55.4119C202.059 57.611 203.462 59.9236 204.618 62.1631C212.1 76.5411 217.95 92.2848 220.165 108.73L220.169 108.73Z" fill="#BF8C36"/>
<path d="M213.037 78.9441L213.381 82.886" stroke="#BF8C36" stroke-miterlimit="10"/>
<path d="M18.8612 82.4689L18.2026 84.8899M19.7778 72.0075L20.7931 78.8122C23.194 76.2895 22.252 71.4085 20.0461 68.9239M8.88925 19.6198C4.94366 24.8948 6.61165 31.5119 10.6704 36.0389C10.8651 36.2576 11.6244 37.349 11.9053 37.0195C14.064 30.9108 13.3842 24.2484 8.88925 19.6198ZM16.1753 11.72L13.6629 14.5792C13.4462 14.8242 12.6461 17.1849 12.5153 17.6982C11.5996 21.2519 12.7936 25.6668 15.0327 28.3542C19.3959 23.5561 20.0603 17.0742 16.1753 11.72ZM10.7561 47.7701C13.712 41.3355 9.01038 34.714 4.82812 30.5325C3.4449 33.3008 3.18468 36.3976 4.27514 39.3305C4.4998 39.9418 5.68101 42.428 6.00124 42.7646L10.7601 47.7656L10.7561 47.7701ZM3.07867 42.3573C-0.438172 48.7667 5.38908 55.4033 9.71074 59.1906C13.2116 52.8211 8.1882 45.5231 3.07867 42.3573ZM21.673 23.9478C17.3291 25.9164 12.9803 32.1136 13.6779 37.3678C13.7238 37.7116 13.5718 37.9912 13.9561 38.2257C18.2685 35.5423 24.1123 29.8552 21.673 23.9478ZM1.31764 53.4099C0.652639 53.5491 0.694576 56.5589 0.757937 57.185C1.2689 62.2028 5.52885 66.6175 9.1675 69.2464C12.8673 63.153 6.24196 55.7698 1.31766 53.4143L1.31764 53.4099ZM21.8299 33.6037C18.2583 35.9573 12.8596 40.1701 13.4999 45.2439C18.0789 45.3077 25.3753 38.8025 21.8299 33.6037ZM14.1394 48.3624C12.9643 49.8795 11.5443 52.5599 11.6464 54.6025C11.722 56.1422 11.9701 56.581 13.279 56.1043C17.5763 54.529 24.5742 48.9272 21.8453 43.1993C19.1925 43.575 15.8559 46.1425 14.1394 48.3624ZM9.48148 76.1862C9.28471 73.7253 8.12634 70.9387 6.72982 69.0108C6.03562 68.0512 1.66547 63.3596 0.88234 64.1356C-0.253695 68.9185 2.38565 75.3492 6.2131 77.7997C8.49499 79.2595 9.74674 79.516 9.47742 76.1819L9.48148 76.1862ZM12.7252 59.4071C11.4108 61.3405 10.6719 63.8506 11.3805 66.2093C11.8678 66.9105 14.1447 65.4882 14.6595 65.1475C17.5233 63.2778 20.9358 59.6502 21.5118 55.9102C21.9664 52.9703 20.9209 52.8353 18.7108 53.8553C16.4927 54.8798 14.1558 57.3003 12.7212 59.4071L12.7252 59.4071ZM8.07499 88.9125C10.9761 83.7099 5.01177 77.984 1.32098 75.4218C-1.11166 80.7299 3.12334 87.6387 8.07499 88.9125ZM34.6171 38.6997C31.2498 41.6294 31.4532 45.5468 33.7287 49.1475C35.8821 46.3184 36.5921 41.8664 34.6171 38.6997ZM29.7707 44.6106C27.6016 47.5414 27.5263 49.621 28.5101 53.0406C28.6986 53.6964 29.9535 57.2853 30.3329 57.3388C32.7071 53.3643 33.8476 47.8 29.7707 44.6106ZM37.004 44.6208C39.8959 42.7155 43.1671 38.1845 41.3466 34.3895C37.7907 35.7631 35.4089 40.7176 37.004 44.6208ZM26.1694 51.0694C23.1483 54.715 23.7707 60.2834 26.9041 63.6017C29.6949 59.8568 29.0172 54.5406 26.1694 51.0694ZM19.8395 63.4043C16.5095 64.7711 13.3391 67.5444 11.6485 71.0221C10.9211 72.5169 10.1982 74.996 11.3021 76.4458C12.1405 77.1788 15.1477 74.9148 15.8666 74.2189C18.2443 71.9083 21.8804 66.8705 19.8395 63.4087L19.8395 63.4043ZM1.6562 85.2613C-0.732189 90.5425 2.81915 97.9217 7.81234 99.4598C10.7574 94.1597 5.28857 88.2831 1.6562 85.2613ZM36.3413 47.0552C34.566 49.651 33.8064 52.9294 37.9043 50.9853C39.8084 50.0832 41.6024 48.061 42.3633 45.9435C42.7537 44.8625 43.232 43.5864 41.8395 43.4241C39.9909 43.2133 37.3873 45.5218 36.3413 47.0552ZM30.2054 59.4676C30.4327 60.6526 34.1667 59.4141 34.8549 59.0584C37.6119 57.6355 40.5511 54.613 40.1918 51.0194C35.9721 51.9054 31.7379 54.9278 30.2014 59.4676L30.2054 59.4676ZM11.8154 79.3184C10.32 81.3816 8.98682 84.5026 10.5952 86.9006C14.0765 86.8519 21.2408 77.916 18.9912 74.6859C18.5684 73.9619 16.6652 75.0538 16.0658 75.4307C14.5573 76.3774 12.8938 77.8332 11.8194 79.3184L11.8154 79.3184ZM27.6296 65.2274C27.3933 65.605 26.5172 68.1166 26.7159 68.3352C30.6867 67.7034 36.0656 65.3667 36.4382 60.3664C33.0742 59.5708 29.4679 62.2779 27.6296 65.2274ZM24.4064 73.2228C23.8257 74.1512 23.5983 75.6101 23.4985 76.719C27.3014 75.5415 33.3244 72.9025 32.8768 67.6149C29.6879 68.0755 26.2527 70.2732 24.4064 73.2228ZM17.1801 84.5031C13.0966 86.9546 7.06623 91.5225 9.88411 97.2936C13.2287 96.4607 15.9949 92.6499 17.0726 89.2358C17.2913 88.5406 18.1895 84.6782 17.1801 84.5031ZM21.3581 80.6338C20.681 81.6647 20.4041 82.8681 20.4421 84.1256C23.9713 83.0966 28.4381 80.6589 28.7809 76.2018C26.4637 75.8502 22.6682 78.643 21.3581 80.6338ZM24.9335 83.5459C22.1118 84.934 17.6371 86.5112 18.116 90.7039C20.9201 91.6685 23.8714 88.6194 24.892 85.9563C25.0196 85.6239 25.4418 83.5539 24.9335 83.5459Z" stroke="#BF8C36" stroke-miterlimit="10"/>
<path d="M20.916 57.3176C24.328 61.0387 25.3344 68.1512 23.685 71.6232" stroke="#BF8C36" stroke-miterlimit="10"/>
<path d="M30.7337 158.763C23.8589 150.308 18.5353 140.329 15.2236 129.603C5.65409 98.5948 9.28594 60.5626 14.675 28.812C11.7568 56.6557 9.06324 84.9663 13.0614 112.806C15.4709 129.694 21.14 145.219 30.7337 158.767L30.7337 158.763Z" fill="#BF8C36"/>
<path d="M11.9272 109.999C13.989 93.5179 19.6929 77.6785 27.0409 63.1777C28.1763 60.9192 29.5613 58.5791 30.7735 56.3642C31.1818 55.6892 33.2322 52.3936 33.6807 51.6696C35.2426 49.1823 36.9867 46.826 38.6863 44.4523C37.3065 47.0708 35.777 49.5711 34.4215 52.1937C24.6774 70.2803 16.9044 89.7026 11.9232 109.999L11.9272 109.999Z" fill="#BF8C36"/>
<path d="M18.7922 80.063L18.4851 84.0102" stroke="#BF8C36" stroke-miterlimit="10"/>
<path d="M111.302 101.446C111.311 103.163 112.474 104.562 114.246 104.552C115.494 104.545 116.602 103.995 117.245 103.075L117.836 103.66C117.078 104.943 115.744 106.185 113.317 106.199C110.684 106.214 109.079 104.418 109.067 102.225C109.056 100.185 110.215 98.6218 112.786 97.4879L113.151 98.0653C111.727 98.9625 111.299 100.248 111.306 101.442L111.302 101.446ZM112.026 97.6914C111.057 96.4098 110.7 95.2928 110.694 94.1516C110.683 92.0905 112.137 90.7949 114.239 90.7828C116.341 90.7707 117.543 91.9271 117.552 93.6344C117.561 95.2444 116.52 96.3606 114.167 97.5684L113.742 97.018C115.032 95.8605 115.798 94.7193 115.792 93.503C115.785 92.2866 115.145 91.6268 114.219 91.6322C113.293 91.6375 112.609 92.4421 112.615 93.5346C112.619 94.2555 112.784 94.9357 113.446 95.9095C114.054 96.7641 114.609 97.4155 116.145 99.2423C117.896 101.316 118.949 102.499 120.898 104.762L119.643 104.11L122.452 104.624L122.334 105.881C121.566 106.085 121.14 106.162 120.576 106.166C119.453 106.172 118.702 105.902 117.909 105.08C116.657 103.707 115.688 102.421 114.743 101.241C113.445 99.5277 112.776 98.6336 112.034 97.6957L112.026 97.6914ZM119.821 97.0006L121.081 96.9934C120.507 99.5267 119.695 101.256 118.401 103.184L117.726 102.683C118.824 100.89 119.431 99.2941 119.821 96.9962L119.821 97.0006ZM120.114 97.6138L118.14 97.2757L118.134 96.3248L122.43 96.3L122.436 97.251L120.537 97.6113L120.118 97.6137L120.114 97.6138Z" fill="#BF8C36"/>
<path d="M60.7414 21.4427C62.6764 24.1251 62.1557 27.191 60.4227 28.6921C58.6896 30.1976 55.9217 30.1679 53.9056 27.3712C51.9706 24.6845 52.5114 21.6051 54.2324 20.113C55.9534 18.6164 58.7213 18.6461 60.7374 21.4428L60.7414 21.4427ZM59.9805 28.0809C61.5571 26.7135 60.8925 24.3008 59.566 22.4627C58.2395 20.6247 56.2552 19.3567 54.6786 20.7242C53.102 22.0916 53.7586 24.5131 55.081 26.3512C56.4035 28.1893 58.4039 29.4483 59.9805 28.0765L59.9805 28.0809Z" fill="black"/>
<path d="M70.0791 19.4362L68.4083 16.3767C67.6928 15.0604 67.1726 14.9668 66.3655 15.4937C66.0844 15.6768 65.7393 15.9619 65.3953 16.4592L65.6576 15.7239L65.9705 17.0871C66.0735 17.5504 66.0066 17.8822 65.6774 18.101C65.3481 18.3197 65.0416 18.2467 64.8345 17.9256C64.5105 16.7524 65.0725 15.5291 66.2972 14.7253C67.5581 13.8993 68.514 14.1269 69.4368 15.8173L70.9898 18.6611C71.3191 19.2642 71.6056 19.3683 71.8907 19.1808C72.0995 19.0424 72.167 18.8342 72.206 18.5733L72.6135 18.7074C72.5968 19.4101 72.3611 19.8006 71.9475 20.0729C71.2729 20.515 70.5425 20.2681 70.0872 19.4361L70.0791 19.4362ZM67.4257 18.0802C67.8299 17.5427 68.4708 16.7916 69.0161 16.2709L69.2803 16.7551C68.7952 17.2357 68.2107 17.9687 67.9347 18.3683C67.0905 19.5627 67.2465 20.1493 67.4579 20.5411C67.8482 21.2542 68.4283 21.2503 68.9905 20.8841C69.4202 20.6028 69.5675 20.266 70.0092 19.1583L70.1444 18.795L70.4676 18.9651L70.3256 19.5891C70.0298 20.877 69.8195 21.5235 69.0726 22.0147C68.1811 22.5996 67.1253 22.5273 66.5195 21.4136C66.1089 20.6608 66.1491 19.8166 67.4297 18.0846L67.4257 18.0802Z" fill="black"/>
<path d="M71.6391 12.5937L70.5739 13.1934L70.2928 12.5941L71.6301 11.5814L71.358 11.9988C70.7371 10.3276 70.5469 9.3607 70.8081 8.37306C71.0492 7.41208 71.6068 6.85124 72.1776 6.53345C72.7765 6.19779 73.3526 6.13638 73.7297 6.59357C73.8645 6.95516 73.7094 7.37619 73.2511 7.63574C72.9336 7.81474 72.591 7.83035 72.1674 7.75367L71.304 7.58717L72.2429 6.70984L72.7319 6.9629C72.5545 6.95969 72.3128 6.98788 72.16 7.07292C71.7782 7.28773 71.4907 7.83347 71.4695 8.44369C71.4368 9.16452 71.6797 10.2062 72.5746 11.8446L74.033 14.9779C74.4893 15.9518 74.9536 16.9212 75.434 17.8817L74.3406 18.4948C73.9125 17.5075 73.4683 16.5246 73.0161 15.5507L71.6391 12.5982L71.6391 12.5937ZM74.0705 10.318L74.4086 11.0407L72.1496 12.3117L71.8115 11.589L74.0705 10.318ZM76.3474 16.7525L76.5755 17.2417L73.3236 19.0676L73.0955 18.5785L74.4002 17.4953L74.6534 17.3521L76.3474 16.7525Z" fill="black"/>
<path d="M81.3471 9.84135C81.4777 10.1719 81.5517 10.4763 81.5729 10.6883L76.7414 12.9796L76.5047 12.3758L79.6199 10.9005C80.2469 10.6046 80.2611 10.2023 80.106 9.80124C79.7837 8.98147 78.8628 8.53258 78.0389 8.92711C77.2028 9.32615 76.536 10.5593 77.3439 12.6131C78.062 14.4378 79.2816 15.0172 80.592 14.3939C81.428 13.9949 81.7914 13.3339 82.025 12.5059L82.4285 12.6225C82.3581 13.8648 81.775 14.9073 80.5812 15.4723C78.8246 16.3019 77.1608 15.509 76.3039 13.3273C75.439 11.1324 76.2263 9.01907 77.8502 8.25226C79.2007 7.61107 80.6698 8.10923 81.3512 9.84575L81.3471 9.84135Z" fill="black"/>
<path d="M86.4429 12.1348C86.7405 12.0178 86.965 11.782 87.2208 11.3648L87.6574 11.6403C87.475 12.2426 87.014 12.7408 86.3424 13.0018C85.4174 13.3661 84.6664 13.0619 84.2981 11.9285C84.1836 11.5756 84.0974 11.2624 83.9092 10.6847L82.7677 7.17858L81.6375 7.61948L81.4329 6.9844L83.0242 6.09394L82.6449 6.79048L82.2737 4.24709L83.0539 3.9412L83.7841 6.56168L85.3348 11.3335C85.5844 12.1009 85.9844 12.3059 86.4429 12.1304L86.4429 12.1348ZM85.45 5.26847L85.6996 6.03585L83.3066 6.97158L83.057 6.20421L85.45 5.26847Z" fill="black"/>
<path d="M87.4264 8.45598C86.7856 5.95912 88.0016 4.18314 89.5826 3.69505C91.1353 3.21599 93.045 4.02046 93.6858 6.51732C94.3266 9.01419 93.066 10.7375 91.5173 11.2209C89.9404 11.709 88.0713 10.9572 87.4305 8.46038L87.4264 8.45598ZM92.4508 6.89698C91.9332 4.88096 90.9499 3.99945 89.7551 4.37C88.5322 4.74958 88.1438 6.05588 88.6614 8.0719C89.179 10.0879 90.1178 10.9167 91.3407 10.5416C92.5355 10.171 92.9684 8.91742 92.4508 6.89698Z" fill="black"/>
<path d="M104.012 3.47279C104.062 3.82601 104.064 4.1442 104.037 4.35652L98.8396 5.25831L98.7478 4.60928L102.101 4.02947C102.777 3.91436 102.88 3.52916 102.818 3.09648C102.693 2.21786 101.899 1.52943 101.014 1.68575C100.112 1.84219 99.1904 2.85614 99.5075 5.06812C99.7871 7.02845 100.843 7.9228 102.248 7.67895C103.15 7.52252 103.651 6.97549 104.062 6.23905L104.426 6.46195C104.077 7.64876 103.276 8.49835 101.991 8.71928C100.103 9.04598 98.671 7.82275 98.3371 5.47388C97.9991 3.11178 99.235 1.28249 100.982 0.978852C102.431 0.725864 103.741 1.60964 104.012 3.47722L104.012 3.47279Z" fill="black"/>
<path d="M106.736 7.70856C106.732 7.00644 106.676 5.39499 106.635 4.42817L106.603 3.69533C106.567 2.83888 106.532 2.35335 106.477 1.73107L105.332 1.65059L105.309 1.10315L107.205 0.0656651L107.424 0.209908L107.674 2.00992L107.778 4.36734C107.819 5.33417 107.904 6.94102 107.964 7.64275L106.74 7.70854L106.736 7.70856ZM108.931 7.03997L108.954 7.58741L105.681 7.75994L105.658 7.21251L107.211 6.8177L107.496 6.80249L108.931 7.03997ZM111.983 2.70467L112.047 4.13944C112.092 5.13714 112.172 6.7131 112.232 7.41483L111.008 7.48061C111.004 6.77849 110.952 5.19793 110.907 4.20022L110.852 2.88904C110.789 1.43661 110.428 0.988649 109.574 1.03423C108.878 1.06991 108.336 1.41365 107.57 2.21818L107.272 2.23346L107.241 1.53154L107.966 1.49126L107.367 1.80446C107.994 0.784493 109.058 -0.0397396 110.052 -0.090703C111.276 -0.156484 111.897 0.638572 111.987 2.70022L111.983 2.70467ZM111.765 6.57899L113.204 6.81644L113.227 7.36388L109.953 7.53641L109.93 6.98898L111.483 6.59417L111.769 6.57896L111.765 6.57899ZM116.247 2.30457L116.315 3.91151C116.36 4.90922 116.441 6.48519 116.5 7.18692L115.276 7.25271C115.273 6.55059 115.221 4.97001 115.175 3.9723L115.116 2.63025C115.053 1.16457 114.664 0.760948 113.823 0.806449C113.182 0.84174 112.596 1.15488 111.835 1.9903L111.492 2.01029L111.47 1.46287L112.239 1.42229L111.591 1.58127C112.282 0.388636 113.31 -0.263131 114.321 -0.314204C115.46 -0.374991 116.161 0.370947 116.247 2.30457ZM116.037 6.35106L117.476 6.58851L117.499 7.13593L114.225 7.30847L114.202 6.76104L115.755 6.36623L116.041 6.35103L116.037 6.35106Z" fill="black"/>
<path d="M123.043 3.80063C122.876 5.76407 123.736 6.93379 125.07 7.0705C125.892 7.15326 126.656 6.79448 127.16 6.05738L127.484 6.28056C126.99 7.53467 126.018 8.15565 124.684 8.01894C122.737 7.82012 121.645 6.20118 121.851 3.81763C122.06 1.37217 123.746 0.0701278 125.439 0.239743C126.701 0.368115 127.681 1.33372 127.767 2.50431C127.664 2.8851 127.435 3.05019 127.081 3.01726C126.613 2.96742 126.454 2.63703 126.388 2.23973L126.151 0.831502L126.755 1.47264C126.298 1.1443 125.822 0.984032 125.427 0.94254C124.193 0.813976 123.219 1.80178 123.047 3.79618L123.043 3.80063Z" fill="black"/>
<path d="M131.23 4.63264C131.858 4.51343 132.784 4.40102 133.51 4.39606L133.424 4.9491C132.771 4.96682 131.893 5.10541 131.443 5.21015C130.094 5.51107 129.859 6.06955 129.789 6.51641C129.66 7.33491 130.101 7.74733 130.747 7.87108C131.239 7.96494 131.552 7.81695 132.545 7.28864L132.862 7.10969L133.009 7.47109L132.531 7.84118C131.544 8.60811 130.998 8.94773 130.139 8.78567C129.114 8.5938 128.357 7.78136 128.56 6.50271C128.697 5.63996 129.226 5.02644 131.226 4.62383L131.23 4.63264ZM132.433 7.55901L132.988 4.04607C133.227 2.53736 132.89 2.09328 131.962 1.91843C131.64 1.85876 131.208 1.82636 130.653 1.95833L131.292 1.58714L130.718 2.8418C130.522 3.263 130.27 3.47245 129.891 3.39991C129.511 3.32737 129.325 3.05464 129.355 2.66551C129.805 1.54428 130.959 1.01488 132.366 1.27926C133.814 1.5522 134.402 2.40998 134.098 4.35226L133.582 7.62186C133.473 8.31648 133.631 8.59825 133.954 8.65792C134.192 8.70491 134.368 8.5932 134.557 8.42396L134.785 8.81576C134.356 9.33578 133.946 9.46675 133.466 9.37723C132.691 9.23226 132.285 8.51907 132.433 7.56343L132.433 7.55901Z" fill="black"/>
<path d="M138.496 9.83845C139.198 10.037 139.761 9.84306 140.608 9.13007L140.634 9.5763C139.865 10.4567 139.069 10.8953 137.992 10.5889C136.309 10.1098 135.538 8.25867 136.059 6.0628C136.604 3.76069 138.214 2.56954 139.913 3.05295C140.7 3.2774 141.295 3.81699 141.733 5.20187L141.501 5.55705C140.903 4.48266 140.406 4.08385 139.881 3.93274C138.844 3.63928 137.735 4.29218 137.242 6.36852C136.764 8.38287 137.378 9.52786 138.496 9.84287L138.496 9.83845ZM142.31 11.0367L142.183 11.5679L140.033 11.1186L140.263 9.53465L141.313 5.09865L141.401 4.91242L142.305 1.09623L141.154 0.609054L141.28 0.0778019L143.553 -0.00404519L143.719 0.171614L143.153 2.30591L141.033 11.2399L140.997 10.4048L142.306 11.0367L142.31 11.0367Z" fill="black"/>
<path d="M146.115 8.75731C146.751 8.75295 147.683 8.81287 148.4 8.93613L148.23 9.46766C147.58 9.37045 146.698 9.34556 146.239 9.36639C144.861 9.42001 144.549 9.93041 144.414 10.3556C144.164 11.1396 144.537 11.6277 145.155 11.8665C145.627 12.0489 145.957 11.9583 147.015 11.6196L147.353 11.5023L147.444 11.8862L146.917 12.1639C145.828 12.7415 145.237 12.9798 144.418 12.6627C143.437 12.2849 142.811 11.3522 143.204 10.1252C143.47 9.29693 144.084 8.78888 146.119 8.75728L146.115 8.75731ZM146.859 11.8593L147.935 8.49292C148.395 7.04451 148.131 6.54689 147.243 6.20823C146.932 6.09102 146.516 5.97895 145.948 6.00936L146.632 5.75717L145.876 6.8938C145.62 7.27565 145.343 7.43666 144.979 7.29329C144.616 7.15434 144.474 6.85036 144.56 6.46967C145.176 5.44449 146.391 5.13121 147.739 5.64794C149.124 6.17767 149.576 7.12924 148.985 8.98958L147.985 12.1212C147.775 12.7856 147.885 13.0942 148.196 13.2114C148.426 13.2982 148.615 13.2218 148.824 13.0878L148.991 13.5154C148.49 13.9519 148.063 14.0035 147.607 13.8298C146.868 13.5476 146.57 12.7717 146.863 11.8548L146.859 11.8593Z" fill="black"/>
<path d="M155.705 16.9651L155.494 17.4615L152.19 15.7562L152.401 15.2599L153.979 15.7307L154.238 15.866L155.701 16.9695L155.705 16.9651ZM155.826 10.3357L154.743 9.7775L155.006 9.17028L156.556 9.71205L156.089 9.73293C156.915 8.17178 157.495 7.41657 158.368 7.03498C159.208 6.65361 159.95 6.79879 160.532 7.0953C161.137 7.40932 161.539 7.87499 161.437 8.47667C161.257 8.81817 160.859 8.94022 160.394 8.70035C160.071 8.53464 159.848 8.2445 159.649 7.83048L159.242 6.98039L160.448 7.25495L160.563 7.83305C160.458 7.67469 160.288 7.48143 160.134 7.40293C159.747 7.20231 159.175 7.29018 158.725 7.64236C158.188 8.05701 157.583 8.90519 156.948 10.686L155.581 13.8726C155.155 14.8654 154.745 15.8625 154.343 16.8639L153.232 16.2927C153.683 15.313 154.121 14.3289 154.547 13.3406L155.834 10.3401L155.826 10.3357ZM158.956 11.0523L158.641 11.788L156.347 10.6017L156.661 9.866L158.956 11.0523Z" fill="black"/>
<path d="M160.595 15.7686C161.224 15.8836 162.131 16.1116 162.818 16.3677L162.57 16.8599C161.949 16.6432 161.081 16.4547 160.622 16.3915C159.259 16.1887 158.87 16.6333 158.667 17.0281C158.3 17.7554 158.592 18.3058 159.166 18.6555C159.603 18.9221 159.941 18.8933 161.04 18.7576L161.395 18.7021L161.425 19.0952L160.862 19.2715C159.699 19.6374 159.079 19.761 158.319 19.3021C157.41 18.7471 156.938 17.7117 157.512 16.5763C157.899 15.8091 158.586 15.4199 160.595 15.7686ZM160.852 18.9666L162.432 15.8488C163.111 14.5094 162.927 13.9671 162.106 13.4644C161.819 13.2896 161.423 13.1023 160.859 13.0266L161.572 12.9068L160.654 13.8854C160.341 14.2146 160.043 14.3183 159.708 14.1129C159.373 13.9074 159.274 13.5811 159.426 13.222C160.187 12.3241 161.435 12.2448 162.684 13.0009C163.969 13.7832 164.268 14.802 163.395 16.5272L161.926 19.4277C161.615 20.0442 161.677 20.3664 161.964 20.5412C162.174 20.6679 162.375 20.6312 162.6 20.5368L162.699 20.9914C162.137 21.3311 161.71 21.3031 161.285 21.0452C160.598 20.6301 160.429 19.8092 160.856 18.9577L160.852 18.9666Z" fill="black"/>
<path d="M165.371 23.0245C165.634 23.2084 165.944 23.2593 166.404 23.2296L166.471 23.7817C165.924 23.9932 165.287 23.8959 164.688 23.4712C163.859 22.889 163.621 22.0508 164.217 21.0389C164.401 20.7238 164.576 20.453 164.876 19.9426L166.71 16.8094L165.704 16.1002L166.035 15.5322L167.647 16.3698L166.914 16.4677L168.525 14.5869L169.22 15.0772L167.773 17.3149L165.275 21.5798C164.876 22.2632 164.967 22.74 165.375 23.0289L165.371 23.0245ZM169.726 17.9645L169.327 18.648L167.192 17.142L167.591 16.4586L169.726 17.9645Z" fill="black"/>
<path d="M169.481 26.2014L169.193 26.6454L166.52 24.5599L166.808 24.116L168.25 24.8574L168.48 25.0371L169.477 26.197L169.481 26.2014ZM167.402 25.2478C167.798 24.6926 168.662 23.3873 169.173 22.5971L169.561 21.9978C170.017 21.2964 170.261 20.8925 170.569 20.3645L169.69 19.5042L169.978 19.0603L172.229 19.6637L172.319 19.9282L171.167 21.62L170.075 23.3025C169.564 24.0927 168.724 25.4155 168.372 26.0057L167.397 25.2434L167.402 25.2478ZM172.597 16.5718C172.913 16.0879 173.456 16.0311 173.885 16.3685C174.314 16.7059 174.446 17.284 174.13 17.7679C173.822 18.2385 173.27 18.3085 172.841 17.9712C172.413 17.6338 172.289 17.0424 172.597 16.5718Z" fill="black"/>
<path d="M174.154 25.6871C174.756 25.9172 175.616 26.3179 176.25 26.7025L175.926 27.1422C175.348 26.8103 174.525 26.4579 174.081 26.3107C172.769 25.8512 172.315 26.2167 172.055 26.5676C171.579 27.2117 171.779 27.8114 172.289 28.2631C172.678 28.6096 173.016 28.647 174.117 28.7191L174.471 28.7343L174.437 29.1279L173.857 29.1937C172.653 29.3345 172.025 29.3388 171.349 28.738C170.539 28.0187 170.24 26.9071 170.988 25.8988C171.493 25.2191 172.229 24.9666 174.15 25.6871L174.154 25.6871ZM173.904 28.8884L175.949 26.1167C176.83 24.9263 176.734 24.3568 176.002 23.7078C175.747 23.4797 175.387 23.2214 174.842 23.0395L175.563 23.0567L174.504 23.8462C174.142 24.1094 173.832 24.1557 173.533 23.8926C173.233 23.6251 173.191 23.2851 173.395 22.9655C174.29 22.2301 175.532 22.3852 176.637 23.3676C177.778 24.3806 177.908 25.4448 176.779 26.9772L174.874 29.5536C174.47 30.0999 174.484 30.4313 174.739 30.6593C174.925 30.826 175.13 30.8246 175.368 30.7744L175.39 31.2382C174.783 31.4634 174.367 31.3557 173.991 31.0224C173.384 30.483 173.344 29.6392 173.9 28.8885L173.904 28.8884Z" fill="black"/>
<path d="M176.353 31.9383C176.73 31.4895 177.362 31.4498 177.775 31.8623C178.184 32.2749 178.199 32.973 177.823 33.4219C177.454 33.8618 176.822 33.9015 176.413 33.489C176.004 33.0764 175.989 32.3783 176.353 31.9428L176.353 31.9383Z" fill="black"/>
</svg>
