<svg width="232" height="160" viewBox="0 0 232 160" fill="none" xmlns="http://www.w3.org/2000/svg">
<path d="M60.0154 52.0558L62.8941 49.1679L61.5161 58.9796L58.0835 59.0031L58.3212 49.1992L86.149 49.0088L86.4633 58.8089L83.0467 58.8323L81.5721 49.0401L84.463 51.8885L60.0194 52.0558L60.0154 52.0558ZM73.1462 81.4788L80.2935 82.2387L80.3059 84.7665L64.5166 84.8745L64.5041 82.3467L71.5709 81.4896L73.1462 81.4788ZM69.1245 65.813C69.0971 60.2668 69.0695 54.6676 68.8931 49.1225L75.5529 49.0769C75.4306 54.5136 75.4583 60.1128 75.4862 65.7695L75.4976 68.0852C75.525 73.649 75.5526 79.2482 75.7291 84.7934L69.0692 84.839C69.1915 79.4023 69.1639 73.803 69.136 68.1464L69.1245 65.8086L69.1245 65.813Z" fill="white"/>
<path d="M90.7505 73.4168L90.7364 70.5707C90.7218 67.6097 90.6667 66.2356 90.5554 64.084L87.096 63.6216L87.0862 61.6196L95.2765 58.156L96.069 58.7075L96.6176 65.3728L96.657 73.372C96.6735 76.7086 96.7492 82.2547 96.8618 84.6758L90.6571 84.7183C90.7419 82.2958 90.7669 76.7491 90.7504 73.4124L90.7505 73.4168ZM87.5802 82.5473L92.6152 81.4344L95.7216 81.4132L100.767 82.457L100.778 84.6579L87.591 84.7481L87.5802 82.5473ZM93.8133 66.2052L97.0607 66.183L96.1265 67.1175C97.3066 61.2933 100.502 58.1158 103.415 58.0959C105.2 58.0837 106.805 59.1025 107.31 60.9862C107.27 63.6559 106.121 65.1619 104.159 65.1754C102.85 65.1843 101.807 64.5506 100.773 63.2937L99.3874 61.6503L101.576 61.7679C99.1903 63.3487 97.4352 66.1318 96.579 69.8103L93.8302 69.6303L93.8133 66.2008L93.8133 66.2052Z" fill="white"/>
<path d="M112.33 84.6022C112.415 82.1785 112.44 76.6291 112.423 73.2909L112.411 70.7396C112.396 67.7772 112.339 66.1062 112.228 63.9536L108.701 63.4913L108.691 61.4884L117.555 58.0186L118.348 58.5703L118.236 66.1189L118.271 73.2509C118.287 76.5891 118.363 82.1378 118.476 84.5601L112.33 84.6022ZM121.365 82.3384L121.376 84.5403L109.192 84.6236L109.181 82.4217L114.149 81.3088L116.52 81.2926L121.365 82.3384ZM111.449 49.1905C111.438 46.9046 113.072 45.3325 115.141 45.3184C117.21 45.3042 118.859 46.8582 118.87 49.1397C118.881 51.4212 117.248 52.9977 115.179 53.0119C113.11 53.026 111.46 51.441 111.449 49.1905Z" fill="white"/>
<path d="M142.642 89.3525C142.632 87.3635 141.467 85.7006 138.352 85.7219L132.884 85.7593C131.381 85.7696 130.014 85.6463 129.005 85.2864L129.004 85.0256C126.497 84.3134 125.337 82.761 125.327 80.6172C125.315 78.2568 126.775 75.9837 129.956 73.0622L131.149 73.9027C130.06 75.2981 129.573 76.327 129.58 77.8033C129.587 79.1603 130.24 80.0266 132.44 80.0115L138.542 79.9698C144.929 79.9261 147.502 82.7773 147.524 87.2946C147.549 92.3601 143.058 96.9835 134.35 97.0431C126.742 97.0952 123.992 94.2629 123.974 90.6826C123.961 88.0438 125.599 85.9816 129.918 84.0911L130.399 84.49C128.913 86.3611 128.331 87.6072 128.341 89.5079C128.357 92.8849 130.653 94.2483 134.804 94.2199C139.97 94.1845 142.655 92.0444 142.642 89.3525ZM134.48 57.9315C140.496 57.8903 144.01 61.1284 144.037 66.6404C144.064 72.1523 140.522 75.3768 134.534 75.4178C128.545 75.4588 124.975 72.1989 124.948 66.771C124.921 61.3431 128.463 57.9727 134.48 57.9315ZM130.38 66.725C130.399 70.597 131.782 73.0806 134.429 73.0625C137.077 73.0444 138.656 70.4344 138.636 66.5314C138.617 62.6285 137.147 60.2648 134.519 60.2828C131.892 60.3008 130.357 62.853 130.376 66.725L130.38 66.725ZM146.971 57.7885L147.728 58.3226L147.746 62.0753L140.622 62.1241L140.614 60.5107L146.971 57.7885Z" fill="white"/>
<path d="M149.734 71.5008C149.692 62.9016 155.158 57.8176 161.507 57.7742C167.857 57.7307 173.372 62.6777 173.415 71.3388C173.458 79.9999 168.233 85.0203 161.642 85.0654C155.051 85.1105 149.777 80.1001 149.734 71.5008ZM167.014 71.44C166.977 64.0074 165.013 60.3707 161.52 60.3946C158.027 60.4185 156.099 64.0863 156.136 71.5145C156.173 78.9427 158.072 82.4694 161.629 82.445C165.186 82.4207 167.05 78.8903 167.014 71.44Z" fill="white"/>
<path d="M36.5878 115.885L39.0093 113.456L37.8495 121.71L34.9608 121.73L35.1577 113.482L58.5697 113.321L58.8362 121.566L55.9635 121.586L54.7221 113.348L57.1554 115.744L36.5878 115.885ZM47.6371 140.642L53.6517 141.281L53.6622 143.411L40.3788 143.503L40.3683 141.373L46.3116 140.651L47.6371 140.642ZM44.2519 127.46C44.2288 122.793 44.2055 118.082 44.0575 113.417L49.6577 113.378C49.5555 117.953 49.5788 122.664 49.6024 127.423L49.612 129.372C49.6352 134.057 49.6585 138.768 49.8065 143.434L44.2063 143.472C44.3086 138.897 44.2852 134.186 44.2617 129.427L44.2519 127.46Z" fill="white"/>
<path d="M62.4506 133.859L62.4388 131.463C62.4265 128.971 62.3805 127.817 62.2869 126.006L59.376 125.619L59.3677 123.936L66.2593 121.02L66.9264 121.484L67.3892 127.094L67.4224 133.825C67.4363 136.635 67.4996 141.297 67.5942 143.339L62.3766 143.374C62.4512 141.336 62.4685 136.669 62.4546 133.859L62.4506 133.859ZM59.7849 141.54L64.019 140.605L66.6338 140.587L70.8768 141.464L70.886 143.316L59.79 143.392L59.7809 141.54L59.7849 141.54ZM65.0275 127.791L67.7592 127.772L66.9734 128.559C67.9686 123.656 70.655 120.986 73.1087 120.969C74.6115 120.959 75.9574 121.816 76.3883 123.399C76.3551 125.645 75.3903 126.911 73.7384 126.922C72.6384 126.93 71.7575 126.396 70.89 125.337L69.7228 123.953L71.5646 124.051C69.5566 125.382 68.0813 127.721 67.3593 130.82L65.0458 130.668L65.0315 127.782L65.0275 127.791Z" fill="white"/>
<path d="M84.8489 130.991C86.5661 130.365 89.3297 129.515 91.3297 129.042L91.3384 130.805C89.4352 131.291 87.1104 132.072 85.8885 132.654C83.1187 133.893 82.3048 135.52 82.3134 137.248C82.3249 139.581 83.5948 140.576 85.2345 140.565C86.3464 140.557 87.0773 140.079 89.0197 138.528L90.2635 137.49L90.771 138.286L89.3089 139.993C87.0854 142.527 85.7504 143.871 82.9867 143.89C79.8806 143.911 77.5019 141.943 77.4835 138.2C77.4692 135.315 78.8928 133.149 84.8408 130.991L84.8489 130.991ZM88.8179 139.276L88.7644 128.432C88.7435 124.208 87.8073 123.078 85.1282 123.097C84.1492 123.103 83.0017 123.248 81.3408 123.856L83.5931 122.254L82.9296 125.772C82.7067 127.952 81.7284 128.931 80.3708 128.94C79.0131 128.95 78.2441 128.226 78.0321 126.91C78.5098 123.297 81.693 120.933 86.745 120.898C91.5311 120.865 93.6213 123.145 93.6503 129.035L93.6991 138.92C93.7063 140.378 94.1643 140.95 94.9338 140.945C95.4978 140.941 95.891 140.615 96.3591 139.936L97.3264 140.827C96.3457 142.937 95.0522 143.719 93.0862 143.732C90.5401 143.75 89.0169 142.046 88.8219 139.272L88.8179 139.276Z" fill="white"/>
<path d="M109.25 140.511C111.297 140.497 112.705 139.174 114.288 136.723L114.724 137.693C112.931 141.683 110.712 143.723 107.263 143.746C102.407 143.78 98.9045 139.494 98.87 132.506C98.8355 125.518 102.894 120.805 107.762 120.771C110.736 120.751 112.618 122.347 114.663 126.117L114.253 127.15C112.239 124.825 110.824 123.929 109.196 123.94C106.4 123.959 104.124 126.609 104.152 132.386C104.181 138.163 106.308 140.535 109.246 140.515L109.25 140.511ZM120.568 141.167L120.578 143.019L113.367 143.554L112.87 139.235L112.8 125.06L112.983 124.519L112.932 114.101L109.71 113.668L109.701 111.918L117.238 109.829L117.865 110.235L117.731 116.619L117.862 143.037L116.095 140.238L120.568 141.167Z" fill="white"/>
<path d="M125.307 143.012C125.382 140.973 125.399 136.303 125.385 133.491L125.374 131.342C125.362 128.849 125.315 127.443 125.221 125.631L122.255 125.244L122.247 123.559L129.705 120.639L130.373 121.103L130.28 127.457L130.309 133.457C130.323 136.27 130.386 140.934 130.481 142.976L125.307 143.012ZM132.908 141.107L132.917 142.96L122.665 143.03L122.656 141.177L126.834 140.242L128.83 140.228L132.908 141.107ZM124.567 113.214C124.558 111.291 125.93 109.968 127.673 109.957C129.415 109.945 130.801 111.253 130.81 113.172C130.82 115.091 129.447 116.418 127.704 116.43C125.962 116.442 124.576 115.107 124.567 113.214Z" fill="white"/>
<path d="M140.608 131.509C140.635 136.968 143.177 139.943 146.848 139.918C149.033 139.903 150.816 138.755 152.04 136.863L153.266 137.832C151.926 141.568 149.127 143.505 145.226 143.532C139.579 143.571 135.448 139.448 135.412 132.167C135.376 124.887 140.127 120.593 145.681 120.555C149.707 120.528 152.775 123.247 153.211 126.732C152.892 128.118 152.153 128.764 150.892 128.773C149.393 128.783 148.441 127.782 148.188 125.604L147.473 122.002L149.944 123.762C148.599 123.037 147.356 122.727 146.127 122.736C143.152 122.756 140.591 125.537 140.62 131.5L140.608 131.509ZM144.263 142.734L146.084 142.722L145.703 146.283L144.642 145.22C147.839 145.45 149.756 146.834 149.767 149.124C149.778 151.414 148.065 152.959 144.7 152.982C143.451 152.991 142.539 152.772 141.804 152.494L142.162 150.767C142.884 150.935 143.509 151.01 144.251 151.005C145.803 150.994 146.52 150.242 146.515 149.089C146.508 147.718 145.586 147.088 143.711 146.867L144.259 142.73L144.263 142.734Z" fill="white"/>
<path d="M163.385 130.535C165.103 129.908 167.867 129.059 169.868 128.585L169.877 130.349C167.973 130.835 165.647 131.615 164.425 132.198C161.655 133.437 160.84 135.065 160.849 136.794C160.861 139.127 162.131 140.122 163.771 140.111C164.883 140.103 165.614 139.625 167.557 138.074L168.801 137.035L169.309 137.832L167.846 139.539C165.622 142.074 164.287 143.418 161.523 143.437C158.416 143.458 156.036 141.49 156.018 137.746C156.004 134.86 157.427 132.693 163.377 130.535L163.385 130.535ZM167.359 138.822L167.306 127.975C167.285 123.749 166.349 122.62 163.669 122.638C162.689 122.645 161.542 122.79 159.88 123.398L162.133 121.795L161.469 125.314C161.246 127.495 160.268 128.474 158.91 128.483C157.552 128.493 156.783 127.768 156.571 126.453C157.048 122.838 160.233 120.473 165.286 120.439C170.073 120.406 172.164 122.686 172.193 128.578L172.242 138.466C172.249 139.925 172.707 140.496 173.477 140.491C174.041 140.487 174.435 140.162 174.903 139.482L175.87 140.373C174.889 142.484 173.595 143.266 171.629 143.28C169.082 143.297 167.558 141.592 167.363 138.818L167.359 138.822ZM161.979 110.144C163.281 110.135 164.158 110.788 165.016 111.498C165.895 112.279 166.73 113.308 167.798 113.3C169.007 113.292 169.807 112.08 170.345 110.114L171.742 110.696C171.281 114.439 169.87 116.774 167.557 116.79C166.284 116.798 165.293 116.147 164.459 115.436C163.581 114.655 162.762 113.627 161.678 113.634C160.469 113.642 159.685 114.854 159.147 116.808L157.749 116.225C158.186 112.464 159.65 110.16 161.983 110.144L161.979 110.144Z" fill="white"/>
<path d="M177.418 131.871C177.382 124.632 181.982 120.359 187.324 120.322C192.666 120.285 197.308 124.447 197.344 131.734C197.38 139.021 192.985 143.249 187.438 143.287C181.89 143.325 177.454 139.109 177.418 131.871ZM191.958 131.82C191.927 125.567 190.276 122.502 187.335 122.523C184.394 122.543 182.774 125.629 182.805 131.882C182.835 138.135 184.433 141.098 187.427 141.078C190.42 141.057 191.989 138.086 191.958 131.82Z" fill="white"/>
<path d="M212.941 82.2746L213.622 84.682M211.93 71.8328L210.976 78.6575C208.553 76.1839 209.45 71.2843 211.633 68.755M222.34 19.2285C226.334 24.4227 224.726 31.0731 220.709 35.6823C220.516 35.905 219.767 37.0116 219.483 36.6879C217.269 30.6237 217.888 23.9481 222.34 19.2285ZM214.983 11.4776L217.521 14.2855C217.74 14.526 218.562 16.8702 218.697 17.3808C219.645 20.9155 218.492 25.3544 216.277 28.087C211.871 23.3781 211.147 16.9103 214.983 11.4776ZM220.73 47.4141C217.716 41.0403 222.357 34.3237 226.5 30.0575C227.909 32.7974 228.197 35.8886 227.134 38.8435C226.914 39.4592 225.756 41.9693 225.439 42.3124L220.726 47.4098L220.73 47.4141ZM228.357 41.8457C231.932 48.1829 226.166 54.9374 221.879 58.8123C218.321 52.5146 223.277 45.1151 228.357 41.8457ZM209.597 23.8161C213.959 25.6962 218.364 31.8043 217.714 37.0722C217.671 37.417 217.826 37.6935 217.443 37.9357C213.107 35.3403 207.212 29.7726 209.597 23.8161ZM230.219 52.8614C230.885 52.987 230.87 55.9974 230.813 56.6248C230.348 61.6525 226.128 66.1534 222.514 68.8562C218.759 62.8386 225.316 55.3212 230.219 52.8658L230.219 52.8614ZM209.528 33.4743C213.121 35.7551 218.557 39.8576 217.963 44.944C213.385 45.1009 206.03 38.7448 209.528 33.4743ZM217.352 48.0753C218.541 49.5683 219.985 52.2196 219.902 54.264C219.84 55.8051 219.596 56.249 218.283 55.7989C213.972 54.3111 206.924 48.8523 209.6 43.0694C212.256 43.391 215.616 45.8904 217.352 48.0753ZM222.263 75.8017C222.437 73.337 223.57 70.5271 224.949 68.571C225.635 67.5974 229.962 62.8173 230.752 63.5772C231.931 68.3366 229.351 74.8204 225.546 77.3485C223.277 78.8546 222.028 79.1366 222.267 75.7973L222.263 75.8017ZM218.867 59.0901C220.199 60.9966 220.96 63.4915 220.273 65.8643C219.792 66.5754 217.503 65.1995 216.985 64.8693C214.104 63.058 210.659 59.5002 210.049 55.7723C209.568 52.842 210.612 52.6857 212.831 53.6606C215.059 54.6399 217.417 57.0127 218.871 59.09L218.867 59.0901ZM223.785 88.4981C220.837 83.3551 226.749 77.5084 230.416 74.8713C232.897 80.1295 228.725 87.1237 223.785 88.4981ZM196.789 38.8299C200.182 41.6909 200.015 45.6121 197.772 49.2587C195.593 46.4737 194.843 42.0365 196.789 38.8299ZM201.688 44.6417C203.884 47.5281 203.978 49.6061 203.026 53.0453C202.843 53.7049 201.621 57.319 201.242 57.3802C198.832 53.4543 197.641 47.9138 201.688 44.6417ZM194.456 44.7991C191.547 42.9528 188.235 38.4888 190.021 34.6571C193.589 35.9582 196.015 40.8638 194.456 44.7991ZM205.348 51.0267C208.402 54.6105 207.83 60.1911 204.727 63.5727C201.903 59.885 202.532 54.5555 205.348 51.0267ZM211.79 63.2316C215.132 64.5306 218.327 67.2391 220.049 70.6821C220.79 72.162 221.536 74.6262 220.445 76.0983C219.613 76.8483 216.586 74.6457 215.861 73.9645C213.462 71.7025 209.78 66.739 211.79 63.2361L211.79 63.2316ZM230.17 84.7167C232.606 89.9488 229.122 97.3996 224.144 99.0392C221.151 93.7995 226.566 87.8122 230.17 84.7167ZM195.141 47.2198C196.939 49.7792 197.729 53.0418 193.613 51.1813C191.701 50.318 189.889 48.3326 189.109 46.2307C188.709 45.1578 188.219 43.8916 189.61 43.7008C191.456 43.4525 194.081 45.7078 195.141 47.2198ZM201.389 59.5062C201.172 60.6958 197.427 59.5333 196.736 59.1916C193.966 57.825 191 54.8626 191.327 51.262C195.554 52.062 199.815 54.998 201.393 59.5062L201.389 59.5062ZM219.958 78.9811C221.472 81.0137 222.833 84.1072 221.247 86.5377C217.766 86.5599 210.521 77.7706 212.741 74.495C213.157 73.7625 215.07 74.8156 215.672 75.1802C217.189 76.0961 218.866 77.5179 219.954 78.9811L219.958 78.9811ZM204.017 65.2131C204.257 65.5858 205.155 68.0793 204.959 68.302C200.983 67.751 195.583 65.524 195.165 60.5318C198.521 59.6678 202.152 62.3013 204.017 65.2131ZM207.313 73.1422C207.902 74.0587 208.142 75.5128 208.252 76.6196C204.439 75.5196 198.392 73.0034 198.792 67.7071C201.985 68.1028 205.44 70.2304 207.313 73.1422ZM214.641 84.2744C218.746 86.6426 224.818 91.0874 222.053 96.9153C218.701 96.1505 215.9 92.3963 214.791 89.0045C214.566 88.3138 213.633 84.47 214.641 84.2744ZM210.428 80.4904C211.114 81.5075 211.402 82.7051 211.376 83.9633C207.837 83.0062 203.349 80.6596 202.966 76.2099C205.279 75.8112 209.1 78.5265 210.428 80.4904ZM206.879 83.475C209.713 84.8056 214.202 86.2916 213.761 90.4936C210.966 91.5152 207.988 88.5264 206.943 85.8843C206.812 85.5546 206.371 83.4934 206.879 83.475Z" stroke="#BF8C36" stroke-miterlimit="10"/>
<path d="M210.676 57.1591C207.298 60.9491 206.356 68.0813 208.037 71.5195" stroke="#BF8C36" stroke-miterlimit="10"/>
<path d="M203.665 158.738C213.243 145.457 218.219 128.985 219.984 112.35C222.996 84.4249 219.862 56.3164 216.693 28.5751C222.32 59.8731 226.675 98.1721 218.459 129.2C215.558 140.048 210.61 150.32 203.665 158.738Z" fill="#BF8C36"/>
<path d="M220.169 109.681C215 89.4692 207.047 70.1771 197.136 52.2534C195.756 49.6534 194.2 47.1786 192.8 44.5833C194.521 46.9285 196.287 49.2558 197.872 51.7171C198.339 52.4467 200.416 55.7169 200.823 56.3631C202.059 58.5622 203.462 60.8747 204.618 63.1142C212.1 77.4923 217.95 93.2359 220.165 109.681L220.169 109.681Z" fill="#BF8C36"/>
<path d="M213.037 79.8953L213.381 83.8372" stroke="#BF8C36" stroke-miterlimit="10"/>
<path d="M18.8612 83.42L18.2026 85.8411M19.7778 72.9587L20.7931 79.7633C23.194 77.2407 22.252 72.3597 20.0461 69.8751M8.88925 20.571C4.94366 25.846 6.61165 32.463 10.6704 36.9901C10.8651 37.2088 11.6244 38.3001 11.9053 37.9707C14.064 31.862 13.3842 25.1996 8.88925 20.571ZM16.1753 12.6711L13.6629 15.5304C13.4462 15.7754 12.6461 18.1361 12.5153 18.6494C11.5996 22.2031 12.7936 26.618 15.0327 29.3053C19.3959 24.5072 20.0603 18.0253 16.1753 12.6711ZM10.7561 48.7213C13.712 42.2867 9.01038 35.6652 4.82812 31.4837C3.4449 34.252 3.18468 37.3487 4.27514 40.2817C4.4998 40.8929 5.68101 43.3792 6.00124 43.7158L10.7601 48.7168L10.7561 48.7213ZM3.07867 43.3085C-0.438172 49.7179 5.38908 56.3545 9.71074 60.1417C13.2116 53.7722 8.1882 46.4742 3.07867 43.3085ZM21.673 24.899C17.3291 26.8676 12.9803 33.0648 13.6779 38.319C13.7238 38.6628 13.5718 38.9424 13.9561 39.1769C18.2685 36.4935 24.1123 30.8064 21.673 24.899ZM1.31764 54.3611C0.652639 54.5003 0.694576 57.5101 0.757937 58.1362C1.2689 63.154 5.52885 67.5687 9.1675 70.1976C12.8673 64.1042 6.24196 56.721 1.31766 54.3655L1.31764 54.3611ZM21.8299 34.5549C18.2583 36.9085 12.8596 41.1213 13.4999 46.1951C18.0789 46.2589 25.3753 39.7537 21.8299 34.5549ZM14.1394 49.3136C12.9643 50.8307 11.5443 53.5111 11.6464 55.5537C11.722 57.0934 11.9701 57.5322 13.279 57.0554C17.5763 55.4801 24.5742 49.8784 21.8453 44.1505C19.1925 44.5262 15.8559 47.0936 14.1394 49.3136ZM9.48148 77.1374C9.28471 74.6765 8.12634 71.8899 6.72982 69.962C6.03562 69.0024 1.66547 64.3108 0.88234 65.0868C-0.253695 69.8697 2.38565 76.3003 6.2131 78.7508C8.49499 80.2107 9.74674 80.4672 9.47742 77.133L9.48148 77.1374ZM12.7252 60.3582C11.4108 62.2916 10.6719 64.8018 11.3805 67.1604C11.8678 67.8617 14.1447 66.4393 14.6595 66.0986C17.5233 64.2289 20.9358 60.6013 21.5118 56.8614C21.9664 53.9215 20.9209 53.7865 18.7108 54.8065C16.4927 55.831 14.1558 58.2515 12.7212 60.3583L12.7252 60.3582ZM8.07499 89.8636C10.9761 84.6611 5.01177 78.9352 1.32098 76.373C-1.11166 81.6811 3.12334 88.5898 8.07499 89.8636ZM34.6171 39.6508C31.2498 42.5806 31.4532 46.498 33.7287 50.0986C35.8821 47.2695 36.5921 42.8175 34.6171 39.6508ZM29.7707 45.5617C27.6016 48.4925 27.5263 50.5722 28.5101 53.9918C28.6986 54.6475 29.9535 58.2365 30.3329 58.29C32.7071 54.3154 33.8476 48.7512 29.7707 45.5617ZM37.004 45.572C39.8959 43.6667 43.1671 39.1357 41.3466 35.3407C37.7907 36.7142 35.4089 41.6687 37.004 45.572ZM26.1694 52.0205C23.1483 55.6662 23.7707 61.2346 26.9041 64.5528C29.6949 60.808 29.0172 55.4918 26.1694 52.0205ZM19.8395 64.3554C16.5095 65.7223 13.3391 68.4956 11.6485 71.9732C10.9211 73.4681 10.1982 75.9472 11.3021 77.397C12.1405 78.13 15.1477 75.866 15.8666 75.1701C18.2443 72.8595 21.8804 67.8216 19.8395 64.3599L19.8395 64.3554ZM1.6562 86.2125C-0.732189 91.4937 2.81915 98.8728 7.81234 100.411C10.7574 95.1109 5.28857 89.2343 1.6562 86.2125ZM36.3413 48.0064C34.566 50.6021 33.8064 53.8805 37.9043 51.9365C39.8084 51.0343 41.6024 49.0122 42.3633 46.8946C42.7537 45.8137 43.232 44.5376 41.8395 44.3752C39.9909 44.1645 37.3873 46.473 36.3413 48.0064ZM30.2054 60.4188C30.4327 61.6038 34.1667 60.3652 34.8549 60.0095C37.6119 58.5867 40.5511 55.5642 40.1918 51.9706C35.9721 52.8565 31.7379 55.879 30.2014 60.4188L30.2054 60.4188ZM11.8154 80.2696C10.32 82.3328 8.98682 85.4537 10.5952 87.8518C14.0765 87.8031 21.2408 78.8672 18.9912 75.6371C18.5684 74.9131 16.6652 76.005 16.0658 76.3819C14.5573 77.3285 12.8938 78.7844 11.8194 80.2695L11.8154 80.2696ZM27.6296 66.1786C27.3933 66.5562 26.5172 69.0677 26.7159 69.2864C30.6867 68.6546 36.0656 66.3179 36.4382 61.3176C33.0742 60.522 29.4679 63.2291 27.6296 66.1786ZM24.4064 74.174C23.8257 75.1024 23.5983 76.5612 23.4985 77.6701C27.3014 76.4927 33.3244 73.8537 32.8768 68.5661C29.6879 69.0266 26.2527 71.2244 24.4064 74.174ZM17.1801 85.4543C13.0966 87.9058 7.06623 92.4736 9.88411 98.2448C13.2287 97.4119 15.9949 93.6011 17.0726 90.187C17.2913 89.4918 18.1895 85.6294 17.1801 85.4543ZM21.3581 81.5849C20.681 82.6158 20.4041 83.8192 20.4421 85.0768C23.9713 84.0478 28.4381 81.61 28.7809 77.153C26.4637 76.8014 22.6682 79.5942 21.3581 81.5849ZM24.9335 84.497C22.1118 85.8852 17.6371 87.4623 18.116 91.655C20.9201 92.6196 23.8714 89.5705 24.892 86.9074C25.0196 86.5751 25.4418 84.5051 24.9335 84.497Z" stroke="#BF8C36" stroke-miterlimit="10"/>
<path d="M20.916 58.2688C24.328 61.9899 25.3344 69.1023 23.685 72.5744" stroke="#BF8C36" stroke-miterlimit="10"/>
<path d="M30.7337 159.714C23.8589 151.259 18.5353 141.28 15.2236 130.554C5.65409 99.5459 9.28594 61.5137 14.675 29.7632C11.7568 57.6069 9.06324 85.9175 13.0614 113.757C15.4709 130.645 21.14 146.17 30.7337 159.718L30.7337 159.714Z" fill="#BF8C36"/>
<path d="M11.9272 110.95C13.989 94.4691 19.6929 78.6297 27.0409 64.1288C28.1763 61.8703 29.5613 59.5303 30.7735 57.3153C31.1818 56.6403 33.2322 53.3447 33.6807 52.6208C35.2426 50.1334 36.9867 47.7771 38.6863 45.4035C37.3065 48.0219 35.777 50.5223 34.4215 53.1449C24.6774 71.2314 16.9044 90.6537 11.9232 110.95L11.9272 110.95Z" fill="#BF8C36"/>
<path d="M18.7922 81.0142L18.4851 84.9614" stroke="#BF8C36" stroke-miterlimit="10"/>
<path d="M111.302 102.398C111.311 104.114 112.474 105.514 114.246 105.503C115.494 105.496 116.602 104.946 117.245 104.026L117.836 104.611C117.078 105.894 115.744 107.136 113.317 107.15C110.684 107.165 109.079 105.37 109.067 103.176C109.056 101.137 110.215 99.573 112.786 98.4391L113.151 99.0164C111.727 99.9137 111.299 101.199 111.306 102.393L111.302 102.398ZM112.026 98.6425C111.057 97.361 110.7 96.2439 110.694 95.1028C110.683 93.0416 112.137 91.7461 114.239 91.734C116.341 91.7219 117.543 92.8783 117.552 94.5856C117.561 96.1956 116.52 97.3118 114.167 98.5196L113.742 97.9692C115.032 96.8117 115.798 95.6705 115.792 94.4542C115.785 93.2378 115.145 92.578 114.219 92.5834C113.293 92.5887 112.609 93.3932 112.615 94.4857C112.619 95.2067 112.784 95.8869 113.446 96.8606C114.054 97.7152 114.609 98.3667 116.145 100.193C117.896 102.267 118.949 103.45 120.898 105.713L119.643 105.061L122.452 105.576L122.334 106.832C121.566 107.036 121.14 107.114 120.576 107.117C119.453 107.123 118.702 106.853 117.909 106.031C116.657 104.658 115.688 103.372 114.743 102.192C113.445 100.479 112.776 99.5848 112.034 98.6469L112.026 98.6425ZM119.821 97.9518L121.081 97.9445C120.507 100.478 119.695 102.208 118.401 104.135L117.726 103.634C118.824 101.841 119.431 100.245 119.821 97.9474L119.821 97.9518ZM120.114 98.5649L118.14 98.2269L118.134 97.2759L122.43 97.2512L122.436 98.2021L120.537 98.5625L120.118 98.5649L120.114 98.5649Z" fill="#BF8C36"/>
<path d="M60.7414 22.3939C62.6764 25.0763 62.1557 28.1422 60.4227 29.6433C58.6896 31.1488 55.9217 31.1191 53.9056 28.3224C51.9706 25.6356 52.5114 22.5563 54.2324 21.0642C55.9534 19.5676 58.7213 19.5972 60.7374 22.3939L60.7414 22.3939ZM59.9805 29.0321C61.5571 27.6646 60.8925 25.252 59.566 23.4139C58.2395 21.5758 56.2552 20.3079 54.6786 21.6753C53.102 23.0428 53.7586 25.4643 55.081 27.3024C56.4035 29.1405 58.4039 30.3995 59.9805 29.0276L59.9805 29.0321Z" fill="white"/>
<path d="M70.0791 20.3874L68.4083 17.3279C67.6928 16.0116 67.1726 15.918 66.3655 16.4449C66.0844 16.628 65.7393 16.9131 65.3953 17.4103L65.6576 16.6751L65.9705 18.0383C66.0735 18.5015 66.0066 18.8334 65.6774 19.0521C65.3481 19.2709 65.0416 19.1979 64.8345 18.8767C64.5105 17.7036 65.0725 16.4802 66.2972 15.6765C67.5581 14.8504 68.514 15.0781 69.4368 16.7685L70.9898 19.6123C71.3191 20.2154 71.6056 20.3195 71.8907 20.1319C72.0995 19.9935 72.167 19.7854 72.206 19.5244L72.6135 19.6586C72.5968 20.3613 72.3611 20.7517 71.9475 21.0241C71.2729 21.4662 70.5425 21.2193 70.0872 20.3873L70.0791 20.3874ZM67.4257 19.0313C67.8299 18.4939 68.4708 17.7428 69.0161 17.2221L69.2803 17.7063C68.7952 18.1868 68.2107 18.9199 67.9347 19.3195C67.0905 20.5139 67.2465 21.1005 67.4579 21.4923C67.8482 22.2054 68.4283 22.2014 68.9905 21.8353C69.4202 21.554 69.5675 21.2171 70.0092 20.1095L70.1444 19.7462L70.4676 19.9163L70.3256 20.5403C70.0298 21.8281 69.8195 22.4747 69.0726 22.9659C68.1811 23.5508 67.1253 23.4785 66.5195 22.3647C66.1089 21.612 66.1491 20.7677 67.4297 19.0357L67.4257 19.0313Z" fill="white"/>
<path d="M71.6391 13.5449L70.5739 14.1446L70.2928 13.5453L71.6301 12.5326L71.358 12.95C70.7371 11.2787 70.5469 10.3119 70.8081 9.32423C71.0492 8.36325 71.6068 7.80241 72.1776 7.48462C72.7765 7.14896 73.3526 7.08755 73.7297 7.54474C73.8645 7.90633 73.7094 8.32736 73.2511 8.58691C72.9336 8.76592 72.591 8.78152 72.1674 8.70484L71.304 8.53835L72.2429 7.66101L72.7319 7.91407C72.5545 7.91086 72.3128 7.93905 72.16 8.02409C71.7782 8.23891 71.4907 8.78464 71.4695 9.39486C71.4368 10.1157 71.6797 11.1574 72.5746 12.7958L74.033 15.9291C74.4893 16.903 74.9536 17.8724 75.434 18.8328L74.3406 19.446C73.9125 18.4586 73.4683 17.4758 73.0161 16.5019L71.6391 13.5493L71.6391 13.5449ZM74.0705 11.2692L74.4086 11.9919L72.1496 13.2629L71.8115 12.5402L74.0705 11.2692ZM76.3474 17.7037L76.5755 18.1928L73.3236 20.0188L73.0955 19.5296L74.4002 18.4464L74.6534 18.3032L76.3474 17.7037Z" fill="white"/>
<path d="M81.3471 10.7925C81.4777 11.1231 81.5517 11.4275 81.5729 11.6395L76.7414 13.9308L76.5047 13.327L79.6199 11.8517C80.2469 11.5557 80.2611 11.1535 80.106 10.7524C79.7837 9.93264 78.8628 9.48375 78.0389 9.87829C77.2028 10.2773 76.536 11.5104 77.3439 13.5643C78.062 15.3889 79.2816 15.9684 80.592 15.3451C81.428 14.9461 81.7914 14.2851 82.025 13.4571L82.4285 13.5737C82.3581 14.816 81.775 15.8585 80.5812 16.4235C78.8246 17.2531 77.1608 16.4601 76.3039 14.2785C75.439 12.0836 76.2263 9.97024 77.8502 9.20343C79.2007 8.56224 80.6698 9.0604 81.3512 10.7969L81.3471 10.7925Z" fill="white"/>
<path d="M86.4429 13.0859C86.7405 12.969 86.965 12.7332 87.2208 12.316L87.6574 12.5914C87.475 13.1938 87.014 13.692 86.3424 13.953C85.4174 14.3173 84.6664 14.013 84.2981 12.8796C84.1836 12.5268 84.0974 12.2136 83.9092 11.6358L82.7677 8.12976L81.6375 8.57065L81.4329 7.93557L83.0242 7.04511L82.6449 7.74165L82.2737 5.19826L83.0539 4.89237L83.7841 7.51285L85.3348 12.2847C85.5844 13.052 85.9844 13.257 86.4429 13.0815L86.4429 13.0859ZM85.45 6.21964L85.6996 6.98702L83.3066 7.92275L83.057 7.15538L85.45 6.21964Z" fill="white"/>
<path d="M87.4264 9.40716C86.7856 6.91029 88.0016 5.13431 89.5826 4.64622C91.1353 4.16716 93.045 4.97163 93.6858 7.46849C94.3266 9.96536 93.066 11.6886 91.5173 12.1721C89.9404 12.6601 88.0713 11.9084 87.4305 9.41155L87.4264 9.40716ZM92.4508 7.84815C91.9332 5.83214 90.9499 4.95062 89.7551 5.32117C88.5322 5.70075 88.1438 7.00706 88.6614 9.02307C89.179 11.0391 90.1178 11.8679 91.3407 11.4927C92.5355 11.1222 92.9684 9.86859 92.4508 7.84815Z" fill="white"/>
<path d="M104.012 4.42397C104.062 4.77718 104.064 5.09537 104.037 5.30769L98.8396 6.20949L98.7478 5.56045L102.101 4.98064C102.777 4.86553 102.88 4.48033 102.818 4.04765C102.693 3.16903 101.899 2.4806 101.014 2.63693C100.112 2.79336 99.1904 3.80731 99.5075 6.01929C99.7871 7.97962 100.843 8.87397 102.248 8.63013C103.15 8.47369 103.651 7.92666 104.062 7.19022L104.426 7.41313C104.077 8.59993 103.276 9.44952 101.991 9.67045C100.103 9.99715 98.671 8.77392 98.3371 6.42505C97.9991 4.06295 99.235 2.23367 100.982 1.93002C102.431 1.67704 103.741 2.56081 104.012 4.42839L104.012 4.42397Z" fill="white"/>
<path d="M106.736 8.65974C106.732 7.95762 106.676 6.34616 106.635 5.37934L106.603 4.6465C106.567 3.79005 106.532 3.30452 106.477 2.68224L105.332 2.60176L105.309 2.05432L107.205 1.01684L107.424 1.16108L107.674 2.96109L107.778 5.31852C107.819 6.28534 107.904 7.89219 107.964 8.59392L106.74 8.65971L106.736 8.65974ZM108.931 7.99114L108.954 8.53858L105.681 8.71112L105.658 8.16368L107.211 7.76887L107.496 7.75366L108.931 7.99114ZM111.983 3.65584L112.047 5.09061C112.092 6.08831 112.172 7.66427 112.232 8.366L111.008 8.43179C111.004 7.72967 110.952 6.1491 110.907 5.15139L110.852 3.84022C110.789 2.38779 110.428 1.93982 109.574 1.9854C108.878 2.02108 108.336 2.36482 107.57 3.16935L107.272 3.18464L107.241 2.48271L107.966 2.44243L107.367 2.75564C107.994 1.73567 109.058 0.911432 110.052 0.860469C111.276 0.794688 111.897 1.58974 111.987 3.65139L111.983 3.65584ZM111.765 7.53016L113.204 7.76761L113.227 8.31505L109.953 8.48759L109.93 7.94015L111.483 7.54534L111.769 7.53014L111.765 7.53016ZM116.247 3.25574L116.315 4.86269C116.36 5.86039 116.441 7.43636 116.5 8.1381L115.276 8.20388C115.273 7.50176 115.221 5.92118 115.175 4.92347L115.116 3.58142C115.053 2.11574 114.664 1.71212 113.823 1.75762C113.182 1.79291 112.596 2.10605 111.835 2.94147L111.492 2.96146L111.47 2.41404L112.239 2.37346L111.591 2.53244C112.282 1.33981 113.31 0.688041 114.321 0.636967C115.46 0.576181 116.161 1.32212 116.247 3.25574ZM116.037 7.30223L117.476 7.53968L117.499 8.0871L114.225 8.25964L114.202 7.71221L115.755 7.3174L116.041 7.3022L116.037 7.30223Z" fill="white"/>
<path d="M123.043 4.7518C122.876 6.71524 123.736 7.88496 125.07 8.02167C125.892 8.10444 126.656 7.74565 127.16 7.00855L127.484 7.23173C126.99 8.48584 126.018 9.10682 124.684 8.97011C122.737 8.77129 121.645 7.15236 121.851 4.7688C122.06 2.32334 123.746 1.0213 125.439 1.19092C126.701 1.31929 127.681 2.28489 127.767 3.45548C127.664 3.83627 127.435 4.00136 127.081 3.96843C126.613 3.9186 126.454 3.58821 126.388 3.1909L126.151 1.78267L126.755 2.42381C126.298 2.09547 125.822 1.9352 125.427 1.89371C124.193 1.76515 123.219 2.75295 123.047 4.74735L123.043 4.7518Z" fill="white"/>
<path d="M131.23 5.58381C131.858 5.4646 132.784 5.3522 133.51 5.34723L133.424 5.90027C132.771 5.91799 131.893 6.05658 131.443 6.16132C130.094 6.46224 129.859 7.02072 129.789 7.46758C129.66 8.28608 130.101 8.6985 130.747 8.82225C131.239 8.91611 131.552 8.76812 132.545 8.23982L132.862 8.06086L133.009 8.42227L132.531 8.79235C131.544 9.55928 130.998 9.89891 130.139 9.73684C129.114 9.54497 128.357 8.73253 128.56 7.45389C128.697 6.59113 129.226 5.97762 131.226 5.575L131.23 5.58381ZM132.433 8.51018L132.988 4.99724C133.227 3.48854 132.89 3.04445 131.962 2.8696C131.64 2.80993 131.208 2.77753 130.653 2.9095L131.292 2.53831L130.718 3.79297C130.522 4.21417 130.27 4.42362 129.891 4.35108C129.511 4.27854 129.325 4.00581 129.355 3.61668C129.805 2.49545 130.959 1.96605 132.366 2.23043C133.814 2.50338 134.402 3.36116 134.098 5.30343L133.582 8.57303C133.473 9.26766 133.631 9.54943 133.954 9.60909C134.192 9.65608 134.368 9.54437 134.557 9.37514L134.785 9.76693C134.356 10.287 133.946 10.4179 133.466 10.3284C132.691 10.1834 132.285 9.47025 132.433 8.5146L132.433 8.51018Z" fill="white"/>
<path d="M138.496 10.7896C139.198 10.9881 139.761 10.7942 140.608 10.0812L140.634 10.5275C139.865 11.4079 139.069 11.8465 137.992 11.54C136.309 11.0609 135.538 9.20984 136.059 7.01397C136.604 4.71186 138.214 3.52071 139.913 4.00412C140.7 4.22858 141.295 4.76817 141.733 6.15304L141.501 6.50822C140.903 5.43384 140.406 5.03502 139.881 4.88391C138.844 4.59045 137.735 5.24335 137.242 7.31969C136.764 9.33405 137.378 10.479 138.496 10.794L138.496 10.7896ZM142.31 11.9879L142.183 12.5191L140.033 12.0697L140.263 10.4858L141.313 6.04982L141.401 5.86359L142.305 2.0474L141.154 1.56023L141.28 1.02897L143.553 0.947127L143.719 1.12279L143.153 3.25708L141.033 12.1911L140.997 11.3559L142.306 11.9879L142.31 11.9879Z" fill="white"/>
<path d="M146.115 9.70848C146.751 9.70412 147.683 9.76405 148.4 9.88731L148.23 10.4188C147.58 10.3216 146.698 10.2967 146.239 10.3176C144.861 10.3712 144.549 10.8816 144.414 11.3068C144.164 12.0908 144.537 12.5788 145.155 12.8177C145.627 13.0001 145.957 12.9095 147.015 12.5707L147.353 12.4535L147.444 12.8374L146.917 13.115C145.828 13.6926 145.237 13.9309 144.418 13.6139C143.437 13.2361 142.811 12.3034 143.204 11.0764C143.47 10.2481 144.084 9.74005 146.119 9.70845L146.115 9.70848ZM146.859 12.8105L147.935 9.44409C148.395 7.99568 148.131 7.49806 147.243 7.1594C146.932 7.04219 146.516 6.93012 145.948 6.96053L146.632 6.70835L145.876 7.84498C145.62 8.22683 145.343 8.38783 144.979 8.24446C144.616 8.10552 144.474 7.80153 144.56 7.42084C145.176 6.39566 146.391 6.08238 147.739 6.59911C149.124 7.12884 149.576 8.08041 148.985 9.94075L147.985 13.0724C147.775 13.7368 147.885 14.0454 148.196 14.1626C148.426 14.2494 148.615 14.173 148.824 14.039L148.991 14.4665C148.49 14.9031 148.063 14.9547 147.607 14.781C146.868 14.4988 146.57 13.7229 146.863 12.806L146.859 12.8105Z" fill="white"/>
<path d="M155.705 17.9163L155.494 18.4126L152.19 16.7074L152.401 16.211L153.979 16.6819L154.238 16.8171L155.701 17.9207L155.705 17.9163ZM155.826 11.2869L154.743 10.7287L155.006 10.1215L156.556 10.6632L156.089 10.6841C156.915 9.12295 157.495 8.36774 158.368 7.98615C159.208 7.60478 159.95 7.74996 160.532 8.04647C161.137 8.3605 161.539 8.82616 161.437 9.42785C161.257 9.76934 160.859 9.89139 160.394 9.65152C160.071 9.48581 159.848 9.19567 159.649 8.78165L159.242 7.93157L160.448 8.20612L160.563 8.78422C160.458 8.62586 160.288 8.4326 160.134 8.35411C159.747 8.15348 159.175 8.24135 158.725 8.59353C158.188 9.00818 157.583 9.85636 156.948 11.6372L155.581 14.8238C155.155 15.8166 154.745 16.8137 154.343 17.8151L153.232 17.2438C153.683 16.2641 154.121 15.2801 154.547 14.2917L155.834 11.2913L155.826 11.2869ZM158.956 12.0034L158.641 12.7392L156.347 11.5529L156.661 10.8172L158.956 12.0034Z" fill="white"/>
<path d="M160.595 16.7197C161.224 16.8347 162.131 17.0628 162.818 17.3188L162.57 17.8111C161.949 17.5944 161.081 17.4058 160.622 17.3427C159.259 17.1399 158.87 17.5845 158.667 17.9792C158.3 18.7066 158.592 19.257 159.166 19.6067C159.603 19.8733 159.941 19.8444 161.04 19.7087L161.395 19.6533L161.425 20.0464L160.862 20.2226C159.699 20.5886 159.079 20.7122 158.319 20.2533C157.41 19.6982 156.938 18.6629 157.512 17.5275C157.899 16.7603 158.586 16.3711 160.595 16.7197ZM160.852 19.9178L162.432 16.8C163.111 15.4606 162.927 14.9183 162.106 14.4156C161.819 14.2408 161.423 14.0535 160.859 13.9778L161.572 13.858L160.654 14.8366C160.341 15.1658 160.043 15.2695 159.708 15.064C159.373 14.8586 159.274 14.5322 159.426 14.1732C160.187 13.2752 161.435 13.196 162.684 13.952C163.969 14.7343 164.268 15.7532 163.395 17.4784L161.926 20.3789C161.615 20.9953 161.677 21.3175 161.964 21.4924C162.174 21.6191 162.375 21.5823 162.6 21.488L162.699 21.9425C162.137 22.2823 161.71 22.2543 161.285 21.9964C160.598 21.5812 160.429 20.7604 160.856 19.9089L160.852 19.9178Z" fill="white"/>
<path d="M165.371 23.9757C165.634 24.1595 165.944 24.2105 166.404 24.1808L166.471 24.7329C165.924 24.9444 165.287 24.847 164.688 24.4224C163.859 23.8402 163.621 23.002 164.217 21.9901C164.401 21.675 164.576 21.4042 164.876 20.8938L166.71 17.7606L165.704 17.0514L166.035 16.4833L167.647 17.321L166.914 17.4188L168.525 15.5381L169.22 16.0284L167.773 18.2661L165.275 22.5309C164.876 23.2144 164.967 23.6911 165.375 23.9801L165.371 23.9757ZM169.726 18.9157L169.327 19.5991L167.192 18.0932L167.591 17.4098L169.726 18.9157Z" fill="white"/>
<path d="M169.481 27.1526L169.193 27.5965L166.52 25.5111L166.808 25.0671L168.25 25.8086L168.48 25.9882L169.477 27.1482L169.481 27.1526ZM167.402 26.1989C167.798 25.6438 168.662 24.3385 169.173 23.5483L169.561 22.949C170.017 22.2476 170.261 21.8437 170.569 21.3157L169.69 20.4554L169.978 20.0115L172.229 20.6148L172.319 20.8794L171.167 22.5712L170.075 24.2537C169.564 25.0439 168.724 26.3667 168.372 26.9569L167.397 26.1945L167.402 26.1989ZM172.597 17.523C172.913 17.0391 173.456 16.9823 173.885 17.3197C174.314 17.6571 174.446 18.2351 174.13 18.7191C173.822 19.1896 173.27 19.2597 172.841 18.9223C172.413 18.585 172.289 17.9936 172.597 17.523Z" fill="white"/>
<path d="M174.154 26.6382C174.756 26.8683 175.616 27.2691 176.25 27.6536L175.926 28.0934C175.348 27.7614 174.525 27.4091 174.081 27.2619C172.769 26.8024 172.315 27.1679 172.055 27.5188C171.579 28.1629 171.779 28.7626 172.289 29.2143C172.678 29.5607 173.016 29.5982 174.117 29.6702L174.471 29.6855L174.437 30.079L173.857 30.1449C172.653 30.2857 172.025 30.29 171.349 29.6892C170.539 28.9699 170.24 27.8583 170.988 26.8499C171.493 26.1703 172.229 25.9178 174.15 26.6383L174.154 26.6382ZM173.904 29.8396L175.949 27.0679C176.83 25.8775 176.734 25.308 176.002 24.659C175.747 24.4309 175.387 24.1726 174.842 23.9907L175.563 24.0079L174.504 24.7974C174.142 25.0606 173.832 25.1069 173.533 24.8438C173.233 24.5762 173.191 24.2362 173.395 23.9166C174.29 23.1813 175.532 23.3363 176.637 24.3187C177.778 25.3318 177.908 26.396 176.779 27.9284L174.874 30.5047C174.47 31.0511 174.484 31.3824 174.739 31.6105C174.925 31.7772 175.13 31.7758 175.368 31.7255L175.39 32.1894C174.783 32.4145 174.367 32.3069 173.991 31.9736C173.384 31.4342 173.344 30.5903 173.9 29.8396L173.904 29.8396Z" fill="white"/>
<path d="M176.353 32.8895C176.73 32.4406 177.362 32.4009 177.775 32.8135C178.184 33.2261 178.199 33.9241 177.823 34.373C177.454 34.813 176.822 34.8527 176.413 34.4401C176.004 34.0275 175.989 33.3295 176.353 32.8939L176.353 32.8895Z" fill="white"/>
</svg>
