<svg width="162" height="162" viewBox="0 0 162 162" fill="none" xmlns="http://www.w3.org/2000/svg">
<path d="M56.7499 22.528C54.7502 17.7439 49.5358 15.2127 44.5746 16.5542L43.1824 16.9339C26.8305 21.3889 12.858 37.2345 16.9333 56.5227C26.3243 100.82 61.1796 135.675 105.476 145.066C124.79 149.166 140.61 135.169 145.065 118.817L145.445 117.425C146.812 112.438 144.255 107.224 139.496 105.249L114.867 94.9977C110.691 93.2511 105.856 94.4661 102.97 97.9845L93.1999 109.932C75.4052 101.098 61.0783 86.3155 52.8517 68.1664L64.0399 59.0539C67.5583 56.1936 68.748 51.3589 67.0267 47.157L56.7499 22.528Z" fill="#BF8C36"/>
</svg>
