<svg width="172" height="172" viewBox="0 0 172 172" fill="none" xmlns="http://www.w3.org/2000/svg">
<path d="M60.2537 23.9188C58.1306 18.8394 52.5944 16.1519 47.3269 17.5763L45.8488 17.9794C28.4875 22.7094 13.6525 39.5332 17.9794 60.0119C27.95 107.043 64.9569 144.05 111.988 154.021C132.494 158.374 149.291 143.513 154.021 126.151L154.424 124.673C155.875 119.379 153.161 113.843 148.108 111.746L121.959 100.862C117.524 99.0075 112.391 100.298 109.327 104.033L98.9538 116.718C80.0606 107.339 64.8494 91.6438 56.115 72.3744L67.9937 62.6994C71.7294 59.6625 72.9925 54.5294 71.165 50.0682L60.2537 23.9188Z" fill="#6C4B3B"/>
</svg>
